<?xml version="1.0" standalone="no"?><!-- Generator: Gravit.io --><svg xmlns="http://www.w3.org/2000/svg" xmlns:xlink="http://www.w3.org/1999/xlink" style="isolation:isolate" viewBox="0 0 2200 512" width="2200" height="512"><defs><clipPath id="_clipPath_R9wCQ92BUJnIppmbpziNyxeHEuCZNKpv"><rect width="2200" height="512"/></clipPath></defs><g clip-path="url(#_clipPath_R9wCQ92BUJnIppmbpziNyxeHEuCZNKpv)"><path d=" M 512 185.809 C 512 194.09 505.281 200.809 497 200.809 L 492.191 200.809 L 492.191 497 L 271.051 497 L 271.051 170.809 L 497 170.809 C 505.281 170.809 512 177.52 512 185.809 L 512 185.809 Z " fill="rgb(238,84,84)"/><path d=" M 512 185.809 C 512 194.09 505.281 200.809 497 200.809 L 271.051 200.809 L 271.051 170.809 L 497 170.809 C 505.281 170.809 512 177.52 512 185.809 Z " fill="rgb(255,156,32)"/><path d=" M 301.051 15 L 301.051 497 L 21.051 497 L 21.25 15 L 301.051 15 Z " fill="rgb(27,106,166)"/><path d=" M 160.781 15 L 301.051 15 L 301.051 497 L 160.781 497 L 160.781 15 Z " fill="rgb(23,55,85)"/><path d=" M 176.051 75.789 L 176.051 101.02 C 176.051 109.301 169.328 116.02 161.051 116.02 C 160.961 116.02 160.871 116.02 160.781 116.012 C 152.609 115.871 146.051 109.211 146.051 101.02 L 146.051 75.789 C 146.051 67.59 152.609 60.941 160.781 60.801 C 160.871 60.789 160.961 60.789 161.051 60.789 C 169.328 60.789 176.051 67.5 176.051 75.789 Z " fill="rgb(255,255,255)"/><path d=" M 99.047 60.789 C 90.762 60.789 84.047 67.504 84.047 75.789 L 84.047 101.02 C 84.047 109.305 90.762 116.02 99.047 116.02 C 107.328 116.02 114.047 109.305 114.047 101.02 L 114.047 75.789 C 114.047 67.504 107.328 60.789 99.047 60.789 Z " fill="rgb(255,255,255)"/><path d=" M 223.047 60.789 C 214.762 60.789 208.047 67.504 208.047 75.789 L 208.047 101.02 C 208.047 109.305 214.762 116.02 223.047 116.02 C 231.328 116.02 238.047 109.305 238.047 101.02 L 238.047 75.789 C 238.047 67.504 231.328 60.789 223.047 60.789 Z " fill="rgb(217,238,255)"/><path d=" M 175.91 161.27 L 175.91 186.5 C 175.91 194.781 169.199 201.5 160.91 201.5 L 160.781 201.5 C 152.559 201.43 145.91 194.738 145.91 186.5 L 145.91 161.27 C 145.91 153.02 152.559 146.34 160.781 146.27 L 160.91 146.27 C 169.199 146.27 175.91 152.98 175.91 161.27 Z " fill="rgb(255,255,255)"/><path d=" M 98.914 146.266 C 90.629 146.266 83.914 152.98 83.914 161.266 L 83.914 186.5 C 83.914 194.781 90.629 201.5 98.914 201.5 C 107.195 201.5 113.914 194.781 113.914 186.5 L 113.914 161.266 C 113.914 152.98 107.195 146.266 98.914 146.266 Z " fill="rgb(255,255,255)"/><path d=" M 222.914 146.266 C 214.629 146.266 207.914 152.98 207.914 161.266 L 207.914 186.5 C 207.914 194.781 214.629 201.5 222.914 201.5 C 231.195 201.5 237.914 194.781 237.914 186.5 L 237.914 161.266 C 237.914 152.98 231.195 146.266 222.914 146.266 Z " fill="rgb(217,238,255)"/><path d=" M 175.91 246.141 L 175.91 271.371 C 175.91 279.66 169.199 286.371 160.91 286.371 L 160.781 286.371 C 152.559 286.301 145.91 279.621 145.91 271.371 L 145.91 246.141 C 145.91 237.898 152.559 231.211 160.781 231.141 L 160.91 231.141 C 169.199 231.141 175.91 237.859 175.91 246.141 L 175.91 246.141 Z " fill="rgb(255,255,255)"/><path d=" M 98.914 231.141 C 90.629 231.141 83.914 237.855 83.914 246.141 L 83.914 271.371 C 83.914 279.656 90.629 286.371 98.914 286.371 C 107.195 286.371 113.914 279.656 113.914 271.371 L 113.914 246.141 C 113.914 237.855 107.195 231.141 98.914 231.141 L 98.914 231.141 Z " fill="rgb(255,255,255)"/><path d=" M 222.914 231.141 C 214.629 231.141 207.914 237.855 207.914 246.141 L 207.914 271.371 C 207.914 279.656 214.629 286.371 222.914 286.371 C 231.195 286.371 237.914 279.656 237.914 271.371 L 237.914 246.141 C 237.914 237.855 231.195 231.141 222.914 231.141 L 222.914 231.141 Z " fill="rgb(217,238,255)"/><path d=" M 175.781 331.621 L 175.781 356.852 C 175.781 365.129 169.07 371.852 160.781 371.852 C 152.5 371.852 145.781 365.129 145.781 356.852 L 145.781 331.621 C 145.781 323.328 152.5 316.621 160.781 316.621 C 169.07 316.621 175.781 323.328 175.781 331.621 Z " fill="rgb(255,255,255)"/><path d=" M 98.781 371.852 C 107.066 371.852 113.781 365.133 113.781 356.852 L 113.781 331.617 C 113.781 323.332 107.066 316.617 98.781 316.617 C 90.496 316.617 83.781 323.332 83.781 331.617 L 83.781 356.852 C 83.781 365.133 90.496 371.852 98.781 371.852 Z " fill="rgb(255,255,255)"/><path d=" M 222.781 371.852 C 231.066 371.852 237.781 365.133 237.781 356.852 L 237.781 331.617 C 237.781 323.332 231.066 316.617 222.781 316.617 C 214.496 316.617 207.781 323.332 207.781 331.617 L 207.781 356.852 C 207.781 365.133 214.496 371.852 222.781 371.852 Z " fill="rgb(217,238,255)"/><path d=" M 175.781 416.41 L 175.781 490.68 C 175.781 498.961 169.07 505.68 160.781 505.68 C 152.5 505.68 145.781 498.961 145.781 490.68 L 145.781 416.41 C 145.781 408.121 152.5 401.41 160.781 401.41 C 169.07 401.41 175.781 408.121 175.781 416.41 L 175.781 416.41 Z " fill="rgb(255,244,156)"/><path d=" M 98.781 401.41 C 90.496 401.41 83.781 408.125 83.781 416.41 L 83.781 490.68 C 83.781 498.965 90.496 505.68 98.781 505.68 C 107.066 505.68 113.781 498.965 113.781 490.68 L 113.781 416.41 C 113.781 408.125 107.066 401.41 98.781 401.41 L 98.781 401.41 Z " fill="rgb(255,244,156)"/><path d=" M 222.781 401.41 C 214.496 401.41 207.781 408.125 207.781 416.41 L 207.781 490.68 C 207.781 498.965 214.496 505.68 222.781 505.68 C 231.066 505.68 237.781 498.965 237.781 490.68 L 237.781 416.41 C 237.781 408.125 231.066 401.41 222.781 401.41 L 222.781 401.41 Z " fill="rgb(254,226,118)"/><g><path d=" M 160.781 316.621 L 160.781 371.852 C 169.07 371.852 175.781 365.129 175.781 356.852 L 175.781 331.621 C 175.781 323.328 169.07 316.621 160.781 316.621 L 160.781 316.621 Z " fill="rgb(217,238,255)"/><path d=" M 160.91 146.27 L 160.781 146.27 L 160.781 201.5 L 160.91 201.5 C 169.199 201.5 175.91 194.781 175.91 186.5 L 175.91 161.27 C 175.91 152.98 169.199 146.27 160.91 146.27 Z " fill="rgb(217,238,255)"/><path d=" M 160.91 231.141 L 160.781 231.141 L 160.781 286.371 L 160.91 286.371 C 169.199 286.371 175.91 279.66 175.91 271.371 L 175.91 246.141 C 175.91 237.859 169.199 231.141 160.91 231.141 L 160.91 231.141 Z " fill="rgb(217,238,255)"/><path d=" M 161.051 60.789 C 160.961 60.789 160.871 60.789 160.781 60.801 L 160.781 116.012 C 160.871 116.02 160.961 116.02 161.051 116.02 C 169.328 116.02 176.051 109.301 176.051 101.02 L 176.051 75.789 C 176.051 67.5 169.328 60.789 161.051 60.789 Z " fill="rgb(217,238,255)"/></g><path d=" M 175.781 416.41 L 175.781 490.68 C 175.781 498.961 169.07 505.68 160.781 505.68 L 160.781 401.41 C 169.07 401.41 175.781 408.121 175.781 416.41 L 175.781 416.41 Z " fill="rgb(254,226,118)"/><path d=" M 412.684 231.141 C 404.398 231.141 397.684 237.855 397.684 246.141 L 397.684 271.371 C 397.684 279.656 404.398 286.371 412.684 286.371 C 420.969 286.371 427.684 279.656 427.684 271.371 L 427.684 246.141 C 427.684 237.855 420.969 231.141 412.684 231.141 L 412.684 231.141 Z " fill="rgb(217,238,255)"/><path d=" M 350.684 231.141 C 342.398 231.141 335.684 237.855 335.684 246.141 L 335.684 271.371 C 335.684 279.656 342.398 286.371 350.684 286.371 C 358.969 286.371 365.684 279.656 365.684 271.371 L 365.684 246.141 C 365.684 237.855 358.969 231.141 350.684 231.141 L 350.684 231.141 Z " fill="rgb(217,238,255)"/><path d=" M 412.551 371.852 C 420.836 371.852 427.551 365.133 427.551 356.852 L 427.551 331.617 C 427.551 323.332 420.836 316.617 412.551 316.617 C 404.266 316.617 397.551 323.332 397.551 331.617 L 397.551 356.852 C 397.551 365.133 404.266 371.852 412.551 371.852 Z " fill="rgb(217,238,255)"/><path d=" M 350.551 371.852 C 358.836 371.852 365.551 365.133 365.551 356.852 L 365.551 331.617 C 365.551 323.332 358.836 316.617 350.551 316.617 C 342.266 316.617 335.551 323.332 335.551 331.617 L 335.551 356.852 C 335.551 365.133 342.266 371.852 350.551 371.852 Z " fill="rgb(217,238,255)"/><path d=" M 412.617 401.41 C 404.336 401.41 397.617 408.125 397.617 416.41 L 397.617 489.5 C 397.617 497.785 404.336 504.5 412.617 504.5 C 420.902 504.5 427.617 497.785 427.617 489.5 L 427.617 416.41 C 427.617 408.125 420.902 401.41 412.617 401.41 L 412.617 401.41 Z " fill="rgb(254,226,118)"/><path d=" M 350.617 401.41 C 342.336 401.41 335.617 408.125 335.617 416.41 L 335.617 489.5 C 335.617 497.785 342.336 504.5 350.617 504.5 C 358.902 504.5 365.617 497.785 365.617 489.5 L 365.617 416.41 C 365.617 408.125 358.902 401.41 350.617 401.41 L 350.617 401.41 Z " fill="rgb(254,226,118)"/><path d=" M 512 497 C 512 505.281 505.281 512 497 512 L 15 512 C 6.711 512 0 505.281 0 497 C 0 488.719 6.711 482 15 482 L 497 482 C 505.281 482 512 488.719 512 497 Z " fill="rgb(0,219,126)"/><path d=" M 512 497 C 512 505.281 505.281 512 497 512 L 160.781 512 L 160.781 482 L 497 482 C 505.281 482 512 488.719 512 497 Z " fill="rgb(0,168,99)"/><path d=" M 321.828 15 C 321.828 23.281 315.121 30 306.828 30 L 15 30 C 6.711 30 0 23.281 0 15 C 0 6.719 6.711 0 15 0 L 306.828 0 C 315.121 0 321.828 6.719 321.828 15 Z " fill="rgb(217,238,255)"/><path d=" M 321.828 15 C 321.828 23.281 315.121 30 306.828 30 L 160.781 30 L 160.781 0 L 306.828 0 C 315.121 0 321.828 6.719 321.828 15 Z " fill="rgb(176,227,252)"/><g transform="matrix(1,0,0,1,566.515,113.848)"><text transform="matrix(1,0,0,1,0.4,387.2)" style="font-family:'Montserrat';font-weight:500;font-size:400px;font-style:normal;fill:#01235e;stroke:none;">Accueil</text></g></g></svg>