<?xml version="1.0" standalone="no"?><!-- Generator: Gravit.io --><svg xmlns="http://www.w3.org/2000/svg" xmlns:xlink="http://www.w3.org/1999/xlink" style="isolation:isolate" viewBox="0 0 1920 496" width="1920" height="496"><defs><clipPath id="_clipPath_ybvyUtrCr5Yxj3TzpUsFR4sOnLUNuI05"><rect width="1920" height="496"/></clipPath></defs><g clip-path="url(#_clipPath_ybvyUtrCr5Yxj3TzpUsFR4sOnLUNuI05)"><rect width="1920" height="496" style="fill:rgb(255,129,99)"/><g><g opacity="0.35"><path d=" M 320.963 444.085 L 85.492 297.711 C 81.441 295.193 80.285 289.744 82.907 285.525 L 197.561 101.081 C 200.184 96.863 205.582 95.488 209.633 98.006 L 445.104 244.38 C 449.154 246.898 450.311 252.347 447.688 256.566 L 333.044 440.993 C 330.422 445.211 324.996 446.592 320.963 444.085 Z " fill="rgb(0,0,0)"/></g><path d=" M 326.314 444.848 L 90.843 298.474 C 86.792 295.956 85.636 290.507 88.258 286.288 L 202.912 101.845 C 205.535 97.626 210.933 96.251 214.984 98.769 L 450.455 245.143 C 454.505 247.661 455.662 253.11 453.039 257.329 L 338.396 441.756 C 335.773 445.975 330.348 447.355 326.314 444.848 Z " fill="rgb(0,0,0)"/><path d=" M 323.528 436.172 L 99.839 297.122 C 95.99 294.73 94.897 289.553 97.394 285.536 L 206.292 110.353 C 208.778 106.353 213.914 105.025 217.763 107.418 L 441.435 246.457 C 445.284 248.85 446.377 254.026 443.88 258.043 L 334.972 433.243 C 332.503 437.254 327.377 438.565 323.528 436.172 L 323.528 436.172 Z " fill="rgb(221,218,215)"/><path d=" M 217.763 107.418 C 213.914 105.025 208.789 106.336 206.292 110.353 L 97.384 285.553 C 94.897 289.553 95.98 294.747 99.829 297.139 L 211.665 366.659 L 329.599 176.938 L 217.763 107.418 Z " fill="rgb(233,232,231)"/><path d=" M 362.105 197.144 C 364.874 208.395 365.963 226.549 340.831 264.241 C 340.831 264.241 301.573 327.546 188.13 337.232 C 187.521 337.274 186.977 336.912 186.81 336.319 L 185.776 332.81 C 185.602 332.189 186.043 331.555 186.679 331.507 C 190.138 331.303 201.74 330.22 233.958 324.872 C 244.692 323.086 256.141 319.437 271.576 313.35 C 283.47 308.649 296.018 302.445 310.603 291.728 C 321.946 283.377 323.61 283.736 336.676 267.927 C 336.676 267.927 359.453 238.557 364.663 217.469 C 364.663 217.469 366.871 212.643 365.527 199.248 C 365.527 199.248 365.392 198.977 364.367 198.527 C 363.343 198.076 362.105 197.144 362.105 197.144 L 362.105 197.144 Z " fill="rgb(190,188,185)"/><path d=" M 328.42 175.762 L 331.411 177.621 C 331.411 177.621 333.903 175.488 337.55 174.307 C 344.756 171.935 352.23 176.255 354.029 183.595 C 356.798 194.847 359.381 222.48 334.239 260.19 C 334.239 260.19 294.98 323.494 181.537 333.181 C 180.929 333.222 180.385 332.861 180.218 332.267 L 179.183 328.758 C 179.01 328.138 179.451 327.503 180.086 327.456 C 183.545 327.252 195.147 326.169 227.366 320.821 C 238.1 319.035 249.549 315.386 264.984 309.299 C 276.877 304.598 289.425 298.394 304.01 287.677 C 315.353 279.325 317.018 279.684 330.084 263.875 C 330.084 263.875 352.861 234.506 358.071 213.417 C 358.071 213.417 360.879 200.203 359.364 188.845 C 358.387 181.457 353.889 175.049 347.196 172.171 C 344.718 171.096 341.776 170.432 338.416 170.627 C 338.392 170.589 332.215 171.456 328.42 175.762 L 328.42 175.762 Z " fill="rgb(55,41,48)"/></g><g transform="matrix(0.856,0.516,-0.516,0.856,207.37,120.83)"><text transform="matrix(1,0,0,1,0,6.024)" style="font-family:'Oleo Script Swash Caps';font-weight:400;font-size:6px;font-style:normal;fill:#000000;stroke:none;">briefing for entry into a more harsh environment</text></g><g><path d=" M 317.377 275.836 L 317.41 272.148 L 289.714 271.9 L 289.683 275.347 C 289.679 275.803 290.139 276.169 290.694 276.174 L 316.646 276.406 C 317.048 276.396 317.374 276.144 317.377 275.836 Z " fill="rgb(25,25,55)"/><rect x="244.395" y="198.534" width="12.432" height="141.97" transform="matrix(0.009,-1,1,0.009,-21.135,517.715)" fill="rgb(24,26,28)"/><rect x="249.38" y="203.564" width="2.374" height="141.97" transform="matrix(0.009,-1,1,0.009,-26.208,522.654)" fill="rgb(2,2,2)"/><rect x="249.609" y="194.377" width="2.079" height="141.97" transform="matrix(0.009,-1,1,0.009,-16.941,513.632)" fill="rgb(61,61,61)"/><path d=" M 332.227 273.407 L 332.285 266.969 C 332.289 266.527 331.844 266.161 331.289 266.156 L 322.54 266.078 L 322.468 274.218 L 331.093 274.295 C 331.725 274.314 332.223 273.916 332.227 273.407 Z " fill="rgb(61,61,61)"/><rect x="326.936" y="262.787" width="0.966" height="9.567" transform="matrix(0.009,-1,1,0.009,56.936,592.586)" fill="rgb(103,103,103)"/><path d=" M 332.226 273.554 L 322.475 273.454 L 322.466 274.46 L 330.828 274.534 C 331.6 274.554 332.221 274.117 332.226 273.554 Z " fill="rgb(24,26,28)"/><rect x="319.46" y="269.16" width="8.141" height="2.021" transform="matrix(0.009,-1,1,0.009,50.482,591.276)" fill="rgb(24,26,28)"/><rect x="316.296" y="269.243" width="12.432" height="1.836" transform="matrix(0.009,-1,1,0.009,49.482,590.248)" fill="rgb(61,61,61)"/><rect x="284.056" y="269.704" width="12.432" height="0.339" transform="matrix(0.009,-1,1,0.009,17.818,557.725)" fill="rgb(0,0,0)"/><rect x="145.181" y="265.647" width="0.376" height="5.879" transform="matrix(0.009,-1,1,0.009,-124.505,411.551)" fill="rgb(9,92,135)"/><path d=" M 149.475 269.307 L 149.487 267.872 L 145.198 267.834 C 145.136 267.833 145.074 267.86 145.074 267.9 L 145.062 269.268 L 149.475 269.307 Z " fill="rgb(103,103,103)"/><rect x="146.566" y="266.501" width="0.268" height="3.256" transform="matrix(0.009,-1,1,0.009,-122.728,412.429)" fill="rgb(139,141,141)"/><path d=" M 147.993 269.361 L 147.997 268.892 L 145.05 268.865 L 145.047 269.214 C 145.046 269.281 145.138 269.335 145.262 269.337 L 147.993 269.361 L 147.993 269.361 Z " fill="rgb(73,73,74)"/><path d=" M 157.213 264.977 C 157.213 264.977 169.28 263.18 176.653 263.461 C 176.653 263.461 178.119 263.554 178.343 264.307 C 178.343 264.307 160.593 264.846 157.213 264.977 Z " fill="rgb(99,100,99)"/><path d=" M 179.685 262.656 C 179.685 262.656 167.32 261.513 148.297 266.373 C 148.136 266.409 148.021 266.534 148.017 266.679 L 147.983 270.394 C 147.985 270.564 148.116 270.712 148.304 270.759 C 150.752 271.451 166.914 275.887 179.574 275.102 L 179.685 262.656 Z " fill="rgb(24,26,28)"/><path d=" M 176.638 263.461 C 172.534 263.37 162.194 263.546 148.093 266.733 C 148.047 266.746 148.016 266.773 148.015 266.813 L 147.984 270.3 C 147.984 270.34 148.015 270.367 148.045 270.367 C 149.185 270.659 165.027 274.703 177.699 274.2 C 178.132 274.177 178.474 273.885 178.477 273.536 L 178.553 265.06 C 178.576 264.189 177.718 263.484 176.638 263.461 L 176.638 263.461 Z " fill="rgb(103,103,103)"/><path d=" M 153.523 268.646 C 153.523 268.646 152.939 270.129 155.545 272.03 C 151.417 271.229 148.523 270.492 148.045 270.367 C 147.999 270.354 147.984 270.327 147.984 270.3 L 148.015 266.813 C 148.016 266.773 148.047 266.746 148.093 266.733 C 151.34 265.998 154.385 265.421 157.213 264.977 C 155.075 265.977 153.35 267.249 153.523 268.646 L 153.523 268.646 Z " fill="rgb(61,61,61)"/><path d=" M 317.637 274.282 L 317.708 266.397 C 317.712 265.914 317.268 265.521 316.713 265.516 L 266.738 265.07 C 266.182 265.065 265.731 265.45 265.727 265.933 L 265.656 273.818 C 265.652 274.301 266.096 274.694 266.652 274.699 L 316.627 275.145 C 317.182 275.137 317.633 274.752 317.637 274.282 Z " fill="rgb(2,2,2)"/><path d=" M 317.024 273.901 L 317.088 266.74 C 317.092 266.297 316.663 265.945 316.107 265.94 L 267.32 265.504 C 266.78 265.499 266.329 265.844 266.325 266.287 L 266.262 273.448 C 266.258 273.891 266.686 274.243 267.242 274.248 L 316.045 274.684 C 316.585 274.689 317.02 274.344 317.024 273.901 Z " fill="rgb(35,38,39)"/><path d=" M 317.112 277.885 L 317.145 274.184 L 289.573 273.938 L 289.542 277.398 C 289.538 277.854 289.982 278.22 290.553 278.225 L 316.397 278.456 C 316.798 278.459 317.109 278.207 317.112 277.885 Z " fill="rgb(35,38,39)"/><path d=" M 286.08 265.859 L 267.884 266.314 C 267.421 266.323 267.048 266.615 267.014 266.977 L 266.269 274.387 L 266.338 266.622 C 266.344 265.898 267.09 265.328 267.985 265.349 L 286.08 265.859 L 286.08 265.859 Z  M 290.553 278.225 L 290.583 274.872 L 289.564 274.863 L 289.54 277.599 C 289.537 277.934 289.874 278.219 290.306 278.223 L 290.553 278.225 Z " fill="rgb(103,103,103)"/></g><g><g opacity="0.2"><path d=" M 542.895 337.247 L 525.31 337.247 L 525.31 319.447 C 525.31 308.51 516.41 299.611 505.473 299.611 L 471.161 299.611 L 471.161 337.247 L 463.333 337.247 L 463.333 461.737 L 542.788 461.737 C 547.291 461.737 551.044 458.091 551.044 453.48 L 551.044 345.503 C 551.044 341 547.399 337.247 542.895 337.247 L 542.895 337.247 Z " fill="rgb(0,0,0)"/></g><path d=" M 547.184 335.103 L 529.599 335.103 L 529.599 317.303 C 529.599 306.366 520.699 297.466 509.762 297.466 L 475.45 297.466 L 475.45 335.103 L 467.622 335.103 L 467.622 459.592 L 547.077 459.592 C 551.58 459.592 555.333 455.946 555.333 451.336 L 555.333 343.359 C 555.333 338.855 551.688 335.103 547.184 335.103 Z " fill="rgb(205,205,205)"/><path d=" M 547.077 459.056 L 467.515 459.056 L 467.515 334.566 L 546.97 334.566 C 551.473 334.566 555.226 338.212 555.226 342.823 L 555.226 450.907 C 555.226 455.41 551.58 459.056 547.077 459.056 L 547.077 459.056 Z " fill="rgb(30,38,59)"/><path d=" M 547.077 459.056 L 470.196 459.056 L 470.196 334.566 L 547.077 334.566 C 551.58 334.566 555.333 338.212 555.333 342.823 L 555.333 450.907 C 555.226 455.41 551.58 459.056 547.077 459.056 L 547.077 459.056 Z " fill="rgb(63,78,107)"/><path d=" M 547.077 459.056 L 471.482 459.056 L 471.482 334.566 L 547.077 334.566 C 551.58 334.566 555.333 338.212 555.333 342.823 L 555.333 450.907 C 555.226 455.41 551.58 459.056 547.077 459.056 L 547.077 459.056 Z " fill="rgb(40,48,76)"/><g><path d=" M 492.713 352.259 C 492.284 352.259 491.748 352.152 491.748 351.723 C 492.928 351.723 493.464 351.186 493.464 350.007 C 493.464 349.042 493.035 348.506 491.963 348.506 C 491.748 348.506 491.427 348.506 491.212 348.613 L 491.212 355.69 L 489.818 355.69 L 489.818 347.755 C 490.569 347.755 491.319 347.648 492.07 347.648 C 493.785 347.648 494.858 348.184 494.858 349.9 C 494.965 351.294 494.107 352.259 492.713 352.259 Z " fill="rgb(30,38,59)"/><path d=" M 501.077 355.69 L 499.683 355.69 L 499.254 353.653 L 496.895 353.653 L 496.466 355.69 L 495.18 355.69 L 497.324 347.755 L 499.04 347.755 L 501.077 355.69 L 501.077 355.69 Z  M 498.932 352.795 L 497.967 348.613 L 497.11 352.795 L 498.932 352.795 L 498.932 352.795 Z " fill-rule="evenodd" fill="rgb(30,38,59)"/><path d=" M 506.224 349.149 C 506.224 349.685 505.902 350.114 505.259 350.114 C 505.044 350.114 504.83 350.114 504.615 349.9 C 504.615 349.685 504.723 349.471 504.723 349.256 C 504.723 348.613 504.401 348.184 503.758 348.184 C 503.221 348.184 502.792 348.506 502.792 349.042 C 502.792 350.865 506.224 351.186 506.224 353.545 C 506.224 355.047 505.151 355.797 503.65 355.797 C 502.364 355.797 501.291 355.368 501.291 354.082 C 501.291 353.545 501.613 353.117 502.256 353.117 C 502.471 353.117 502.685 353.117 502.9 353.331 C 502.792 353.545 502.792 353.76 502.792 353.974 C 502.792 354.725 503.114 355.154 503.865 355.154 C 504.508 355.154 505.044 354.725 505.044 354.082 C 505.044 352.259 501.613 351.937 501.613 349.578 C 501.613 348.291 502.685 347.541 503.972 347.541 C 505.151 347.433 506.224 347.862 506.224 349.149 L 506.224 349.149 Z  M 511.8 349.149 C 511.8 349.685 511.478 350.114 510.835 350.114 C 510.62 350.114 510.406 350.114 510.191 349.9 C 510.191 349.685 510.298 349.471 510.298 349.256 C 510.298 348.613 509.977 348.184 509.333 348.184 C 508.797 348.184 508.368 348.506 508.368 349.042 C 508.368 350.865 511.8 351.186 511.8 353.545 C 511.8 355.047 510.727 355.797 509.226 355.797 C 507.939 355.797 506.867 355.368 506.867 354.082 C 506.867 353.545 507.189 353.117 507.832 353.117 C 508.047 353.117 508.261 353.117 508.475 353.331 C 508.368 353.545 508.368 353.76 508.368 353.974 C 508.368 354.725 508.69 355.154 509.441 355.154 C 510.084 355.154 510.62 354.725 510.62 354.082 C 510.62 352.259 507.189 351.937 507.189 349.578 C 507.189 348.291 508.261 347.541 509.548 347.541 C 510.727 347.433 511.8 347.862 511.8 349.149 L 511.8 349.149 Z  M 515.767 352.259 C 515.338 352.259 514.802 352.152 514.802 351.723 C 515.981 351.723 516.518 351.186 516.518 350.007 C 516.518 349.042 516.089 348.506 515.016 348.506 C 514.802 348.506 514.48 348.506 514.266 348.613 L 514.266 355.69 L 512.872 355.69 L 512.872 347.755 C 513.622 347.755 514.373 347.648 515.124 347.648 C 516.839 347.648 517.911 348.184 517.911 349.9 C 518.019 351.294 517.161 352.259 515.767 352.259 Z " fill="rgb(30,38,59)"/><path d=" M 524.559 351.615 C 524.559 353.974 523.916 356.012 521.557 356.012 C 519.198 356.012 518.555 354.189 518.555 351.83 C 518.555 349.471 519.305 347.541 521.557 347.541 C 523.809 347.433 524.559 349.256 524.559 351.615 Z  M 523.058 351.615 C 523.058 350.222 522.951 348.291 521.557 348.291 C 520.163 348.291 520.056 350.222 520.056 351.615 C 520.056 353.117 520.163 355.047 521.557 355.047 C 522.951 355.047 523.058 353.117 523.058 351.615 Z " fill-rule="evenodd" fill="rgb(30,38,59)"/><path d=" M 529.17 352.044 L 531.207 355.69 L 529.706 355.69 L 527.562 351.83 C 527.562 351.723 527.455 351.723 527.455 351.615 C 528.634 351.615 529.17 351.079 529.17 349.9 C 529.17 348.935 528.741 348.506 527.669 348.506 C 527.455 348.506 527.133 348.506 526.918 348.613 L 526.918 355.69 L 525.524 355.69 L 525.524 347.755 C 526.275 347.755 527.026 347.648 527.776 347.648 C 529.385 347.648 530.564 348.291 530.564 349.9 C 530.779 350.972 530.135 351.83 529.17 352.044 L 529.17 352.044 Z  M 536.14 348.613 L 534.317 348.613 L 534.317 355.69 L 532.923 355.69 L 532.923 348.613 L 531.1 348.613 L 531.1 347.648 L 536.247 347.648 L 536.14 348.613 L 536.14 348.613 Z " fill="rgb(30,38,59)"/></g><g><path d=" M 493.142 352.044 C 492.713 352.044 492.177 351.937 492.177 351.508 C 493.357 351.508 493.893 350.972 493.893 349.793 C 493.893 348.827 493.464 348.291 492.392 348.291 C 492.177 348.291 491.855 348.291 491.641 348.399 L 491.641 355.261 L 490.247 355.261 L 490.247 347.648 C 490.89 347.648 491.748 347.541 492.499 347.541 C 494.214 347.541 495.287 348.077 495.287 349.793 C 495.394 351.186 494.536 352.044 493.142 352.044 Z " fill="rgb(237,203,165)"/><path d=" M 501.399 355.368 L 500.005 355.368 L 499.576 353.438 L 497.324 353.438 L 496.895 355.368 L 495.608 355.368 L 497.753 347.648 L 499.468 347.648 L 501.399 355.368 L 501.399 355.368 Z  M 499.361 352.58 L 498.396 348.506 L 497.431 352.58 L 499.361 352.58 L 499.361 352.58 Z " fill-rule="evenodd" fill="rgb(237,203,165)"/><path d=" M 506.545 349.042 C 506.545 349.578 506.224 350.007 505.688 350.007 C 505.473 350.007 505.259 350.007 505.044 349.793 C 505.044 349.578 505.151 349.364 505.151 349.256 C 505.151 348.613 504.83 348.184 504.187 348.184 C 503.65 348.184 503.221 348.506 503.221 349.042 C 503.221 350.865 506.653 351.079 506.653 353.438 C 506.653 354.832 505.58 355.583 504.079 355.583 C 502.792 355.583 501.72 355.154 501.72 353.867 C 501.72 353.331 502.042 352.902 502.685 352.902 C 502.9 352.902 503.114 352.902 503.329 353.117 C 503.221 353.331 503.221 353.545 503.221 353.653 C 503.221 354.403 503.543 354.725 504.294 354.725 C 504.937 354.725 505.473 354.296 505.473 353.653 C 505.473 351.83 502.042 351.615 502.042 349.256 C 502.042 347.97 503.114 347.326 504.401 347.326 C 505.473 347.433 506.545 347.862 506.545 349.042 L 506.545 349.042 Z  M 512.014 349.042 C 512.014 349.578 511.692 350.007 511.156 350.007 C 510.942 350.007 510.727 350.007 510.513 349.793 C 510.513 349.578 510.62 349.364 510.62 349.256 C 510.62 348.613 510.298 348.184 509.655 348.184 C 509.119 348.184 508.69 348.506 508.69 349.042 C 508.69 350.865 512.121 351.079 512.121 353.438 C 512.121 354.832 511.049 355.583 509.548 355.583 C 508.261 355.583 507.189 355.154 507.189 353.867 C 507.189 353.331 507.511 352.902 508.154 352.902 C 508.368 352.902 508.583 352.902 508.797 353.117 C 508.69 353.331 508.69 353.545 508.69 353.653 C 508.69 354.403 509.012 354.725 509.762 354.725 C 510.406 354.725 510.942 354.296 510.942 353.653 C 510.942 351.83 507.511 351.615 507.511 349.256 C 507.511 347.97 508.583 347.326 509.869 347.326 C 511.049 347.433 512.014 347.862 512.014 349.042 L 512.014 349.042 Z  M 515.981 352.044 C 515.552 352.044 515.016 351.937 515.016 351.508 C 516.196 351.508 516.732 350.972 516.732 349.793 C 516.732 348.827 516.303 348.291 515.231 348.291 C 515.016 348.291 514.695 348.291 514.48 348.399 L 514.48 355.261 L 513.194 355.261 L 513.194 347.648 C 513.837 347.648 514.695 347.541 515.445 347.541 C 517.161 347.541 518.233 348.077 518.233 349.793 C 518.126 351.186 517.268 352.044 515.981 352.044 Z " fill="rgb(237,203,165)"/><path d=" M 524.667 351.401 C 524.667 353.76 524.023 355.583 521.664 355.583 C 519.305 355.583 518.662 353.867 518.662 351.508 C 518.662 349.256 519.413 347.326 521.664 347.326 C 524.023 347.433 524.667 349.149 524.667 351.401 Z  M 523.273 351.508 C 523.273 350.114 523.165 348.291 521.772 348.291 C 520.378 348.291 520.27 350.222 520.27 351.508 C 520.27 352.902 520.378 354.832 521.772 354.832 C 523.165 354.832 523.273 352.902 523.273 351.508 Z " fill-rule="evenodd" fill="rgb(237,203,165)"/><path d=" M 529.277 351.937 L 531.315 355.476 L 529.814 355.476 L 527.776 351.723 C 527.776 351.615 527.669 351.615 527.669 351.508 C 528.848 351.508 529.385 350.972 529.385 349.9 C 529.385 348.935 528.956 348.506 527.884 348.506 C 527.669 348.506 527.347 348.506 527.133 348.613 L 527.133 355.476 L 525.739 355.476 L 525.739 347.648 C 526.382 347.648 527.24 347.541 527.991 347.541 C 529.599 347.541 530.779 348.077 530.779 349.685 C 530.779 350.865 530.242 351.615 529.277 351.937 L 529.277 351.937 Z  M 536.14 348.506 L 534.317 348.506 L 534.317 355.368 L 532.923 355.368 L 532.923 348.506 L 531.1 348.506 L 531.1 347.648 L 536.14 347.648 L 536.14 348.506 L 536.14 348.506 Z " fill="rgb(237,203,165)"/></g><rect x="507.832" y="437.718" width="8.9" height="5.897" transform="matrix(1,0,0,1,0,0)" fill="rgb(30,38,59)"/><rect x="508.261" y="437.718" width="8.9" height="5.469" transform="matrix(1,0,0,1,0,0)" fill="rgb(237,203,165)"/><path d=" M 512.657 373.704 C 499.683 373.704 489.175 384.212 489.175 397.294 C 489.175 410.375 499.683 420.883 512.657 420.883 C 525.632 420.883 536.14 410.375 536.14 397.294 C 536.14 384.212 525.524 373.704 512.657 373.704 L 512.657 373.704 Z  M 512.657 418.417 C 500.97 418.417 491.641 408.981 491.641 397.294 C 491.641 385.606 501.077 376.17 512.657 376.17 C 524.238 376.17 533.674 385.606 533.674 397.294 C 533.674 408.981 524.238 418.417 512.657 418.417 Z " fill-rule="evenodd" fill="rgb(30,38,59)"/><rect x="511.478" y="373.811" width="2.144" height="46.965" transform="matrix(1,0,0,1,0,0)" fill="rgb(30,38,59)"/><rect x="489.175" y="396.222" width="46.751" height="2.252" transform="matrix(1,0,0,1,0,0)" fill="rgb(30,38,59)"/><path d=" M 497.431 380.995 C 497.431 380.995 512.657 393.326 527.562 380.459 L 528.956 381.96 C 528.956 381.96 515.338 396.222 496.252 382.818 L 497.431 380.995 L 497.431 380.995 Z  M 497.431 414.879 C 497.431 414.879 513.301 403.406 527.562 415.415 L 528.956 413.914 C 528.956 413.914 515.016 400.189 496.252 413.056 L 497.431 414.879 L 497.431 414.879 Z " fill="rgb(30,38,59)"/><g><path d=" M 512.872 373.704 C 500.112 373.704 489.711 384.105 489.711 396.865 C 489.711 409.625 500.112 420.026 512.872 420.026 C 525.632 420.026 536.033 409.625 536.033 396.865 C 536.033 384.105 525.632 373.704 512.872 373.704 Z  M 512.872 417.667 C 501.399 417.667 492.07 408.338 492.07 396.865 C 492.07 385.392 501.399 376.063 512.872 376.063 C 524.345 376.063 533.674 385.392 533.674 396.865 C 533.674 408.338 524.345 417.667 512.872 417.667 Z " fill-rule="evenodd" fill="rgb(237,203,165)"/><rect x="511.8" y="373.811" width="2.144" height="46.214" transform="matrix(1,0,0,1,0,0)" fill="rgb(237,203,165)"/><rect x="489.711" y="395.793" width="46.214" height="2.144" transform="matrix(1,0,0,1,0,0)" fill="rgb(237,203,165)"/><path d=" M 497.86 380.888 C 497.86 380.888 512.872 393.112 527.669 380.352 L 529.063 381.853 C 529.063 381.853 515.552 395.9 496.681 382.711 L 497.86 380.888 L 497.86 380.888 Z  M 497.86 414.235 C 497.86 414.235 513.622 402.977 527.669 414.772 L 529.063 413.27 C 529.063 413.27 515.338 399.76 496.681 412.413 L 497.86 414.235 L 497.86 414.235 Z " fill="rgb(237,203,165)"/></g><path d=" M 529.492 334.566 L 475.235 334.566 L 475.235 296.93 L 509.655 296.93 C 520.592 296.93 529.492 305.83 529.492 316.767 L 529.492 334.566 L 529.492 334.566 Z " fill="rgb(205,205,205)"/><path d=" M 529.492 332.744 L 475.235 332.744 L 475.235 296.93 L 509.655 296.93 C 520.592 296.93 529.492 305.83 529.492 316.767 L 529.492 332.744 L 529.492 332.744 Z " fill="rgb(230,230,232)"/><path d=" M 529.492 306.044 C 529.492 301.005 525.417 296.93 520.378 296.93 L 475.343 296.93 L 475.343 308.725 L 529.599 308.725 L 529.599 306.044 L 529.492 306.044 L 529.492 306.044 Z " fill="rgb(89,160,177)"/><rect x="475.235" y="308.082" width="54.256" height="1.394" transform="matrix(1,0,0,1,0,0)" fill="rgb(40,48,76)"/><g><path d=" M 485.422 302.827 C 485.958 302.935 486.28 303.364 486.28 303.9 C 486.28 304.757 485.529 305.079 484.671 305.079 C 484.35 305.079 483.921 305.079 483.599 304.972 L 483.599 301.219 L 484.671 301.219 C 485.422 301.219 485.958 301.433 485.958 302.184 C 485.958 302.399 485.744 302.72 485.422 302.827 L 485.422 302.827 Z  M 484.564 302.72 C 484.993 302.72 485.315 302.613 485.315 302.077 C 485.315 301.755 485.1 301.541 484.671 301.541 L 484.242 301.541 L 484.242 302.72 L 484.564 302.72 L 484.564 302.72 Z  M 484.671 304.65 C 485.207 304.65 485.529 304.436 485.529 303.9 C 485.529 303.256 485.207 303.149 484.564 303.149 L 484.35 303.149 L 484.35 304.65 L 484.671 304.65 Z  M 489.604 303.042 C 489.604 304.221 489.282 305.186 488.102 305.186 C 486.923 305.186 486.601 304.329 486.601 303.149 C 486.601 301.97 486.923 301.112 488.102 301.112 C 489.282 301.005 489.604 301.862 489.604 303.042 Z  M 488.96 303.042 C 488.96 302.291 488.853 301.433 488.21 301.433 C 487.567 301.433 487.459 302.399 487.459 303.042 C 487.459 303.793 487.459 304.757 488.21 304.757 C 488.853 304.757 488.96 303.793 488.96 303.042 Z  M 492.821 305.079 L 492.177 305.079 L 491.963 304.114 L 490.783 304.114 L 490.569 305.079 L 489.925 305.079 L 490.998 301.219 L 491.855 301.219 L 492.821 305.079 L 492.821 305.079 Z  M 491.748 303.578 L 491.319 301.541 L 490.89 303.578 L 491.748 303.578 L 491.748 303.578 Z " fill-rule="evenodd" fill="rgb(230,230,232)"/><path d=" M 494.965 303.256 L 496.037 304.972 L 495.287 304.972 L 494.214 303.149 L 494.214 303.042 C 494.858 303.042 495.072 302.827 495.072 302.184 C 494.965 301.755 494.751 301.541 494.214 301.541 L 493.785 301.541 L 493.785 304.972 L 493.142 304.972 L 493.142 301.219 L 494.214 301.219 C 495.072 301.219 495.608 301.541 495.608 302.291 C 495.716 302.72 495.394 303.149 494.965 303.256 Z " fill="rgb(230,230,232)"/><path d=" M 497.538 301.112 C 498.718 301.112 499.04 301.862 499.04 303.042 C 499.04 304.329 498.611 305.186 497.324 305.186 C 497.002 305.186 496.573 305.186 496.252 305.079 L 496.252 301.219 C 496.681 301.112 497.217 301.112 497.538 301.112 Z  M 498.396 303.042 C 498.396 302.291 498.289 301.541 497.538 301.541 L 497.002 301.541 L 497.002 304.65 L 497.431 304.65 C 498.289 304.65 498.396 304.007 498.396 303.042 Z " fill-rule="evenodd" fill="rgb(230,230,232)"/><path d=" M 500.326 305.079 L 499.683 305.079 L 499.683 301.112 L 500.326 301.112 L 500.326 305.079 Z  M 501.613 302.399 L 501.613 305.079 L 501.077 305.079 L 501.077 301.112 L 501.613 301.112 L 503.221 303.793 L 503.221 301.112 L 503.758 301.112 L 503.758 304.972 L 503.221 304.972 L 501.613 302.399 Z  M 505.044 303.042 C 505.044 303.793 505.151 304.65 505.902 304.65 C 506.117 304.65 506.224 304.65 506.438 304.543 L 506.438 303.149 L 507.082 303.042 L 507.082 304.757 C 506.76 304.865 506.224 304.972 505.902 304.972 C 504.723 304.972 504.294 304.114 504.294 302.935 C 504.294 301.755 504.723 300.897 505.902 300.897 C 506.545 300.897 507.082 301.112 507.082 301.755 C 507.082 302.077 506.867 302.184 506.653 302.184 C 506.545 302.184 506.438 302.184 506.331 302.077 L 506.331 301.755 C 506.331 301.433 506.117 301.219 505.795 301.219 C 505.151 301.433 505.044 302.399 505.044 303.042 L 505.044 303.042 Z  M 510.084 303.364 C 509.869 303.364 509.655 303.256 509.655 303.042 C 510.298 303.042 510.513 302.827 510.513 302.184 C 510.513 301.648 510.298 301.433 509.762 301.433 L 509.333 301.433 L 509.333 304.865 L 508.69 304.865 L 508.69 301.219 L 509.762 301.219 C 510.62 301.219 511.156 301.541 511.156 302.291 C 511.156 302.935 510.727 303.364 510.084 303.364 L 510.084 303.364 Z " fill="rgb(230,230,232)"/><path d=" M 514.266 305.079 L 513.622 305.079 L 513.408 304.114 L 512.121 304.114 L 511.907 305.079 L 511.263 305.079 L 512.336 301.219 L 513.194 301.219 L 514.266 305.079 L 514.266 305.079 Z  M 513.194 303.578 L 512.765 301.541 L 512.336 303.578 L 513.194 303.578 L 513.194 303.578 Z " fill-rule="evenodd" fill="rgb(230,230,232)"/><path d=" M 516.839 301.862 C 516.839 302.184 516.625 302.291 516.41 302.291 C 516.303 302.291 516.196 302.291 516.089 302.184 L 516.089 301.862 C 516.089 301.541 515.981 301.326 515.66 301.326 C 515.338 301.326 515.231 301.433 515.231 301.755 C 515.231 302.613 516.946 302.827 516.946 304.007 C 516.946 304.757 516.41 305.079 515.66 305.079 C 515.016 305.079 514.48 304.865 514.48 304.221 C 514.48 303.9 514.695 303.793 514.909 303.793 C 515.016 303.793 515.124 303.793 515.231 303.9 L 515.231 304.221 C 515.231 304.543 515.445 304.757 515.767 304.757 C 516.089 304.757 516.41 304.543 516.41 304.221 C 516.41 303.364 514.695 303.149 514.695 301.97 C 514.695 301.326 515.231 301.005 515.874 301.005 C 516.303 301.005 516.839 301.219 516.839 301.862 Z  M 519.627 301.862 C 519.627 302.184 519.413 302.291 519.198 302.291 C 519.091 302.291 518.984 302.291 518.877 302.184 L 518.877 301.862 C 518.877 301.541 518.769 301.326 518.448 301.326 C 518.126 301.326 518.019 301.433 518.019 301.755 C 518.019 302.613 519.734 302.827 519.734 304.007 C 519.734 304.757 519.198 305.079 518.448 305.079 C 517.804 305.079 517.268 304.865 517.268 304.221 C 517.268 303.9 517.482 303.793 517.697 303.793 C 517.804 303.793 517.911 303.793 518.019 303.9 L 518.019 304.221 C 518.019 304.543 518.233 304.757 518.555 304.757 C 518.877 304.757 519.198 304.543 519.198 304.221 C 519.198 303.364 517.482 303.149 517.482 301.97 C 517.482 301.326 518.019 301.005 518.662 301.005 C 519.091 301.005 519.627 301.219 519.627 301.862 L 519.627 301.862 Z " fill="rgb(230,230,232)"/></g></g><g transform="matrix(1,0,0,1,195.333,171.333)"><text transform="matrix(1,0,0,1,0,21.377)" style="font-family:'Open Sans';font-weight:400;font-size:20px;font-style:normal;fill:#000000;stroke:none;">Your text here</text></g><g transform="matrix(0.85,0.527,-0.527,0.85,199.092,165.148)"><text transform="matrix(1,0,0,1,0,8.273)" style="font-family:'Over the Rainbow';font-weight:400;font-size:6px;font-style:normal;fill:#000000;stroke:none;">Suscipit interdum augue condimentum. Etiam</text></g><g transform="matrix(0.835,0.55,-0.55,0.835,197.566,131.815)"><text transform="matrix(1,0,0,1,0,8.273)" style="font-family:'Over the Rainbow';font-weight:400;font-size:6px;font-style:normal;fill:#000000;stroke:none;">Suscipit interdum augue condimentum. Etiam</text></g><g><g opacity="0.35"><path d=" M 98.42 90.519 C 96.433 89.053 96.449 84.669 96.449 84.669 L 96.449 50.45 L 96.829 49.907 C 98.606 47.401 98.474 43.956 96.503 41.612 L 96.441 41.543 L 96.441 33.24 C 96.441 32.953 96.425 32.674 96.402 32.387 C 95.611 24.627 88.006 24.744 86.905 24.798 C 86.788 24.806 86.68 24.806 86.563 24.806 C 82.28 24.868 80.27 27.118 79.339 29.089 C 78.788 30.245 78.532 31.533 78.532 32.821 L 78.532 41.356 L 77.834 42.412 C 76.414 44.561 76.445 47.409 77.896 49.527 L 78.525 50.443 L 78.517 86.748 C 78.633 88.727 77.322 90.209 77.322 90.209 C 74.901 92.459 98.8 90.791 98.42 90.519 L 98.42 90.519 Z  M 96.371 46.586 C 96.371 47.843 95.261 48.867 93.896 48.867 L 80.977 48.867 C 79.611 48.867 78.501 47.843 78.501 46.586 L 78.501 44.926 C 78.501 43.669 79.611 42.644 80.977 42.644 L 93.896 42.644 C 95.261 42.644 96.371 43.669 96.371 44.926 L 96.371 46.586 Z " fill-rule="evenodd" fill="rgb(0,0,0)"/></g><path d=" M 99.816 89.899 C 97.83 88.432 97.845 84.048 97.845 84.048 L 97.845 49.83 L 98.226 49.286 C 100.002 46.78 99.871 43.335 97.9 40.992 L 97.838 40.922 L 97.838 32.619 C 97.838 32.332 97.822 32.053 97.799 31.766 C 97.007 24.006 89.403 24.123 88.301 24.177 C 88.185 24.185 88.076 24.185 87.96 24.185 C 83.677 24.247 81.667 26.497 80.736 28.468 C 80.185 29.624 79.929 30.912 79.929 32.2 L 79.929 40.736 L 79.231 41.791 C 77.811 43.94 77.842 46.788 79.293 48.906 L 79.921 49.822 L 79.913 86.128 C 80.03 88.106 78.719 89.588 78.719 89.588 C 76.298 91.839 100.196 90.17 99.816 89.899 L 99.816 89.899 Z  M 97.768 45.965 C 97.768 47.222 96.658 48.247 95.293 48.247 L 82.373 48.247 C 81.008 48.247 79.898 47.222 79.898 45.965 L 79.898 44.305 C 79.898 43.048 81.008 42.024 82.373 42.024 L 95.293 42.024 C 96.658 42.024 97.768 43.048 97.768 44.305 L 97.768 45.965 Z " fill-rule="evenodd" fill="rgb(5,5,5)"/><g style="opacity:0.35;"><g opacity="0.35"><path d=" M 78.16 124.87 C 78.16 124.87 78.765 125.227 78.641 127.206 L 78.649 181.133 C 78.649 182.421 78.85 183.74 79.456 184.865 C 80.526 186.867 82.521 188.877 86.68 189.148 C 86.796 189.156 86.905 189.148 87.021 189.156 C 88.115 189.211 95.727 189.327 96.518 181.568 C 96.55 181.288 96.557 181.001 96.557 180.714 L 96.557 129.285 C 96.557 129.285 96.107 127.423 97.426 124.862 C 97.426 124.87 85.756 124.87 78.16 124.87 L 78.16 124.87 Z  M 95.58 179.185 C 95.58 183.158 93.275 187.441 89.535 187.868 C 88.728 187.961 85.811 187.953 85.78 187.946 C 81.427 187.534 79.626 183.554 79.626 178.937 L 79.626 127.081 C 79.626 126.569 80.03 126.15 80.519 126.15 L 94.392 126.15 C 95.044 126.15 95.58 126.701 95.58 127.384 L 95.58 179.185 L 95.58 179.185 Z " fill-rule="evenodd" fill="rgb(0,0,0)"/></g><g opacity="0.35"><path d=" M 94.4 126.158 L 80.526 126.158 C 80.03 126.158 79.634 126.577 79.634 127.089 L 79.634 178.945 C 79.634 183.562 81.434 187.542 85.787 187.953 C 85.811 187.953 88.736 187.961 89.543 187.876 C 93.283 187.449 95.587 183.166 95.587 179.193 L 95.587 127.392 C 95.58 126.709 95.052 126.158 94.4 126.158 L 94.4 126.158 Z  M 87.611 147.939 C 88.185 147.939 88.643 148.42 88.643 149.009 C 88.643 149.599 88.177 150.08 87.611 150.08 C 87.044 150.08 86.579 149.599 86.579 149.009 C 86.579 148.42 87.037 147.939 87.611 147.939 Z  M 87.611 152.672 C 88.185 152.672 88.643 153.153 88.643 153.743 C 88.643 154.332 88.177 154.813 87.611 154.813 C 87.044 154.813 86.579 154.332 86.579 153.743 C 86.571 153.153 87.037 152.672 87.611 152.672 Z  M 87.611 157.312 C 88.185 157.312 88.643 157.793 88.643 158.383 C 88.643 158.972 88.177 159.453 87.611 159.453 C 87.044 159.453 86.579 158.972 86.579 158.383 C 86.571 157.793 87.037 157.312 87.611 157.312 Z  M 87.611 162.34 C 88.185 162.34 88.643 162.821 88.643 163.411 C 88.643 164 88.177 164.481 87.611 164.481 C 87.044 164.481 86.579 164 86.579 163.411 C 86.571 162.821 87.037 162.34 87.611 162.34 Z  M 87.611 167.081 C 88.185 167.081 88.643 167.562 88.643 168.152 C 88.643 168.741 88.177 169.222 87.611 169.222 C 87.044 169.222 86.579 168.741 86.579 168.152 C 86.579 167.562 87.037 167.081 87.611 167.081 Z  M 87.611 171.713 C 88.185 171.713 88.643 172.194 88.643 172.784 C 88.643 173.374 88.177 173.855 87.611 173.855 C 87.044 173.855 86.579 173.374 86.579 172.784 C 86.579 172.194 87.037 171.713 87.611 171.713 Z  M 87.727 178.572 C 87.153 178.572 86.695 178.091 86.695 177.502 C 86.695 176.912 87.161 176.431 87.727 176.431 C 88.294 176.431 88.759 176.912 88.759 177.502 C 88.759 178.091 88.294 178.572 87.727 178.572 Z " fill-rule="evenodd" fill="rgb(0,0,0)"/></g></g><path d=" M 79.557 124.249 C 79.557 124.249 80.162 124.606 80.038 126.585 L 80.045 180.512 C 80.045 181.8 80.247 183.119 80.852 184.245 C 81.923 186.246 83.917 188.256 88.076 188.528 C 88.193 188.535 88.301 188.528 88.418 188.535 C 89.512 188.59 97.124 188.706 97.915 180.947 C 97.946 180.667 97.954 180.38 97.954 180.093 L 97.954 128.664 C 97.954 128.664 97.504 126.802 98.823 124.242 C 98.823 124.249 87.153 124.249 79.557 124.249 L 79.557 124.249 Z  M 96.976 178.565 C 96.976 182.537 94.672 186.821 90.932 187.247 C 90.125 187.341 87.207 187.333 87.176 187.325 C 82.823 186.914 81.023 182.933 81.023 178.316 L 81.023 126.461 C 81.023 125.949 81.427 125.53 81.915 125.53 L 95.789 125.53 C 96.441 125.53 96.976 126.081 96.976 126.763 L 96.976 178.565 L 96.976 178.565 Z " fill-rule="evenodd" fill="rgb(5,5,5)"/><path d=" M 95.797 125.537 L 81.923 125.537 C 81.427 125.537 81.031 125.956 81.031 126.468 L 81.031 178.324 C 81.031 182.941 82.831 186.922 87.184 187.333 C 87.207 187.333 90.133 187.341 90.94 187.255 C 94.68 186.828 96.984 182.545 96.984 178.572 L 96.984 126.771 C 96.976 126.088 96.449 125.537 95.797 125.537 L 95.797 125.537 Z  M 89.007 147.318 C 89.582 147.318 90.039 147.799 90.039 148.389 C 90.039 148.978 89.574 149.459 89.007 149.459 C 88.441 149.459 87.975 148.978 87.975 148.389 C 87.975 147.799 88.433 147.318 89.007 147.318 Z  M 89.007 152.051 C 89.582 152.051 90.039 152.532 90.039 153.122 C 90.039 153.712 89.574 154.193 89.007 154.193 C 88.441 154.193 87.975 153.712 87.975 153.122 C 87.968 152.532 88.433 152.051 89.007 152.051 Z  M 89.007 156.691 C 89.582 156.691 90.039 157.172 90.039 157.762 C 90.039 158.352 89.574 158.833 89.007 158.833 C 88.441 158.833 87.975 158.352 87.975 157.762 C 87.968 157.172 88.433 156.691 89.007 156.691 Z  M 89.007 161.719 C 89.582 161.719 90.039 162.2 90.039 162.79 C 90.039 163.38 89.574 163.861 89.007 163.861 C 88.441 163.861 87.975 163.38 87.975 162.79 C 87.968 162.2 88.433 161.719 89.007 161.719 Z  M 89.007 166.46 C 89.582 166.46 90.039 166.941 90.039 167.531 C 90.039 168.121 89.574 168.602 89.007 168.602 C 88.441 168.602 87.975 168.121 87.975 167.531 C 87.975 166.941 88.433 166.46 89.007 166.46 Z  M 89.007 171.092 C 89.582 171.092 90.039 171.574 90.039 172.163 C 90.039 172.753 89.574 173.234 89.007 173.234 C 88.441 173.234 87.975 172.753 87.975 172.163 C 87.975 171.574 88.433 171.092 89.007 171.092 Z  M 89.124 177.952 C 88.55 177.952 88.092 177.471 88.092 176.881 C 88.092 176.291 88.557 175.81 89.124 175.81 C 89.69 175.81 90.156 176.291 90.156 176.881 C 90.156 177.471 89.69 177.952 89.124 177.952 Z " fill-rule="evenodd" fill="rgb(5,5,5)"/><path d=" M 100.879 90.814 C 100.561 90.473 100.196 90.178 99.816 89.899 C 97.83 88.432 97.845 84.048 97.845 84.048 L 97.845 49.83 L 98.226 49.286 C 100.002 46.78 99.871 43.335 97.9 40.992 L 97.838 40.922 L 97.838 32.619 C 97.838 32.332 97.822 32.053 97.799 31.766 C 97.007 24.006 89.403 24.123 88.301 24.177 C 88.185 24.185 88.076 24.185 87.96 24.185 C 83.677 24.247 81.667 26.497 80.736 28.468 C 80.185 29.624 79.929 30.912 79.929 32.2 L 79.929 40.736 L 79.231 41.791 C 77.811 43.94 77.842 46.788 79.293 48.906 L 79.921 49.822 L 79.913 86.128 C 80.03 88.106 78.719 89.588 78.719 89.588 C 76.274 91.839 75.297 93.484 75.297 93.484 L 102.904 93.484 C 102.579 92.708 101.554 91.544 100.879 90.814 L 100.879 90.814 Z  M 97.768 45.965 C 97.768 47.222 96.658 48.247 95.293 48.247 L 82.373 48.247 C 81.008 48.247 79.898 47.222 79.898 45.965 L 79.898 44.305 C 79.898 43.048 81.008 42.024 82.373 42.024 L 95.293 42.024 C 96.658 42.024 97.768 43.048 97.768 44.305 L 97.768 45.965 Z " fill-rule="evenodd" fill="rgb(239,238,237)"/><path d=" M 97.768 44.313 L 97.768 45.973 C 97.768 47.075 96.922 47.991 95.805 48.208 L 95.805 83.482 C 95.805 85.825 96.689 88.068 98.264 89.744 L 101.803 93.499 L 102.928 93.499 C 102.579 92.723 101.562 91.551 100.887 90.822 C 100.569 90.481 100.204 90.186 99.824 89.906 C 97.838 88.44 97.853 84.056 97.853 84.056 L 97.853 49.837 L 98.233 49.294 C 100.01 46.788 99.878 43.343 97.907 40.999 L 97.845 40.93 L 97.845 32.627 C 97.845 32.34 97.83 32.061 97.807 31.774 C 97.582 29.578 96.813 28.01 95.797 26.901 L 95.797 42.093 C 96.922 42.295 97.768 43.211 97.768 44.313 L 97.768 44.313 Z  M 80.069 44.313 L 80.069 45.973 C 80.069 47.075 80.914 47.991 82.032 48.208 L 82.032 83.482 C 82.032 85.825 81.147 88.068 79.572 89.744 L 76.034 93.499 L 75.227 95.416 C 75.576 94.64 76.274 91.559 76.957 90.83 C 77.275 90.488 77.64 90.194 78.02 89.914 C 80.007 88.448 79.991 84.064 79.991 84.064 L 79.991 49.845 L 79.611 49.302 C 77.834 46.796 77.966 43.35 79.937 41.007 L 79.999 40.937 L 79.999 32.635 C 79.999 32.348 80.014 32.068 80.038 31.781 C 80.263 29.585 81.031 28.018 82.047 26.908 L 82.047 42.101 C 80.914 42.295 80.069 43.211 80.069 44.313 L 80.069 44.313 Z " fill="rgb(206,206,206)"/><g><path d=" M 75.429 119.229 C 75.429 119.229 76.414 120.882 78.85 123.124 C 78.85 123.124 80.162 124.606 80.045 126.585 L 80.053 180.512 C 80.053 181.8 80.255 183.119 80.86 184.245 C 81.931 186.246 83.925 188.256 88.084 188.528 C 88.2 188.535 88.309 188.528 88.425 188.535 C 89.52 188.59 97.131 188.706 97.923 180.947 C 97.954 180.667 97.962 180.38 97.962 180.093 L 97.962 128.664 C 97.962 128.664 97.946 124.28 99.933 122.814 C 100.313 122.535 100.677 122.24 100.996 121.898 C 101.671 121.169 102.687 120.005 103.036 119.221 L 75.429 119.221 L 75.429 119.229 L 75.429 119.229 Z  M 96.976 178.565 C 96.976 182.537 94.672 186.821 90.932 187.247 C 90.125 187.341 87.207 187.333 87.176 187.325 C 82.823 186.914 81.023 182.933 81.023 178.316 L 81.023 126.461 C 81.023 125.949 81.427 125.53 81.915 125.53 L 95.789 125.53 C 96.441 125.53 96.976 126.081 96.976 126.763 L 96.976 178.565 L 96.976 178.565 Z " fill-rule="evenodd" fill="rgb(206,206,206)"/><path d=" M 95.797 125.537 L 81.923 125.537 C 81.427 125.537 81.031 125.956 81.031 126.468 L 81.031 178.324 C 81.031 182.941 82.831 186.922 87.184 187.333 C 87.207 187.333 90.133 187.341 90.94 187.255 C 94.68 186.828 96.984 182.545 96.984 178.572 L 96.984 126.771 C 96.976 126.088 96.449 125.537 95.797 125.537 L 95.797 125.537 Z  M 89.007 147.318 C 89.582 147.318 90.039 147.799 90.039 148.389 C 90.039 148.978 89.574 149.459 89.007 149.459 C 88.441 149.459 87.975 148.978 87.975 148.389 C 87.975 147.799 88.433 147.318 89.007 147.318 Z  M 89.007 152.051 C 89.582 152.051 90.039 152.532 90.039 153.122 C 90.039 153.712 89.574 154.193 89.007 154.193 C 88.441 154.193 87.975 153.712 87.975 153.122 C 87.968 152.532 88.433 152.051 89.007 152.051 Z  M 89.007 156.691 C 89.582 156.691 90.039 157.172 90.039 157.762 C 90.039 158.352 89.574 158.833 89.007 158.833 C 88.441 158.833 87.975 158.352 87.975 157.762 C 87.968 157.172 88.433 156.691 89.007 156.691 Z  M 89.007 161.719 C 89.582 161.719 90.039 162.2 90.039 162.79 C 90.039 163.38 89.574 163.861 89.007 163.861 C 88.441 163.861 87.975 163.38 87.975 162.79 C 87.968 162.2 88.433 161.719 89.007 161.719 Z  M 89.007 166.46 C 89.582 166.46 90.039 166.941 90.039 167.531 C 90.039 168.121 89.574 168.602 89.007 168.602 C 88.441 168.602 87.975 168.121 87.975 167.531 C 87.975 166.941 88.433 166.46 89.007 166.46 Z  M 89.007 171.092 C 89.582 171.092 90.039 171.574 90.039 172.163 C 90.039 172.753 89.574 173.234 89.007 173.234 C 88.441 173.234 87.975 172.753 87.975 172.163 C 87.975 171.574 88.433 171.092 89.007 171.092 Z  M 89.124 177.952 C 88.55 177.952 88.092 177.471 88.092 176.881 C 88.092 176.291 88.557 175.81 89.124 175.81 C 89.69 175.81 90.156 176.291 90.156 176.881 C 90.156 177.471 89.69 177.952 89.124 177.952 Z " fill-rule="evenodd" fill="rgb(239,238,237)"/></g><g opacity="0.35"><path d=" M 96.697 124.87 L 78.975 124.87 C 76.003 124.87 73.597 122.372 73.597 119.283 L 73.597 95.594 C 73.597 92.514 76.003 90.007 78.975 90.007 L 96.697 90.007 C 99.669 90.007 102.074 92.506 102.074 95.594 L 102.074 119.283 C 102.074 122.372 99.661 124.87 96.697 124.87 Z " fill="rgb(0,0,0)"/></g><path d=" M 98.094 124.249 L 80.371 124.249 C 77.399 124.249 74.994 121.751 74.994 118.663 L 74.994 94.973 C 74.994 91.893 77.399 89.387 80.371 89.387 L 98.094 89.387 C 101.065 89.387 103.471 91.885 103.471 94.973 L 103.471 118.663 C 103.471 121.751 101.058 124.249 98.094 124.249 Z " fill="rgb(244,205,152)"/><path d=" M 97.768 123.954 L 80.472 123.954 C 77.578 123.954 75.227 121.518 75.227 118.507 L 75.227 95.4 C 75.227 92.389 77.578 89.953 80.472 89.953 L 97.768 89.953 C 100.662 89.953 103.013 92.389 103.013 95.4 L 103.013 118.507 C 103.013 121.518 100.662 123.954 97.768 123.954 Z " fill="rgb(181,138,97)"/><path d=" M 97.675 123.559 L 80.705 123.559 C 77.865 123.559 75.561 121.169 75.561 118.213 L 75.561 95.532 C 75.561 92.576 77.865 90.186 80.705 90.186 L 97.675 90.186 C 100.515 90.186 102.819 92.576 102.819 95.532 L 102.819 118.213 C 102.827 121.161 100.515 123.559 97.675 123.559 Z " fill="rgb(244,205,152)"/><path d=" M 97.403 123.016 L 80.984 123.016 C 78.23 123.016 76.003 120.703 76.003 117.84 L 76.003 95.897 C 76.003 93.041 78.23 90.721 80.984 90.721 L 97.403 90.721 C 100.158 90.721 102.385 93.034 102.385 95.897 L 102.385 117.84 C 102.385 120.696 100.15 123.016 97.403 123.016 Z " fill="rgb(255,233,202)"/><path d=" M 97.186 122.597 L 81.194 122.597 C 78.517 122.597 76.344 120.339 76.344 117.561 L 76.344 96.192 C 76.344 93.406 78.517 91.156 81.194 91.156 L 97.186 91.156 C 99.863 91.156 102.035 93.414 102.035 96.192 L 102.035 117.561 C 102.035 120.339 99.863 122.597 97.186 122.597 Z " fill="rgb(5,5,5)"/><path d=" M 97 122.232 L 81.38 122.232 C 78.765 122.232 76.639 120.028 76.639 117.312 L 76.639 96.432 C 76.639 93.716 78.757 91.513 81.38 91.513 L 97 91.513 C 99.614 91.513 101.741 93.716 101.741 96.432 L 101.741 117.312 C 101.741 120.028 99.614 122.232 97 122.232 Z " fill="rgb(63,63,63)"/><path d=" M 96.852 121.929 L 81.535 121.929 C 78.967 121.929 76.887 119.772 76.887 117.103 L 76.887 96.634 C 76.887 93.972 78.967 91.808 81.535 91.808 L 96.852 91.808 C 99.42 91.808 101.5 93.965 101.5 96.634 L 101.5 117.103 C 101.492 119.772 99.413 121.929 96.852 121.929 Z " fill="rgb(5,5,5)"/><path d=" M 101.492 96.634 C 101.492 93.972 99.413 91.808 96.844 91.808 L 81.527 91.808 C 80.767 91.808 80.045 92.002 79.409 92.335 L 101.484 115.148 L 101.484 96.634 L 101.492 96.634 L 101.492 96.634 Z " fill="rgb(73,72,73)"/><path d=" M 100.491 94.477 L 101.275 95.167 C 100.677 93.22 98.924 91.815 96.852 91.815 L 81.535 91.815 C 80.775 91.815 80.053 92.009 79.417 92.343 L 79.619 92.552 L 95.432 92.552 C 97.287 92.552 99.079 93.235 100.491 94.477 L 100.491 94.477 Z  M 99.785 120.013 C 98.939 120.734 97.884 121.13 96.79 121.13 L 78.967 121.13 C 79.704 121.634 80.581 121.929 81.527 121.929 L 96.852 121.929 C 98.839 121.929 100.538 120.633 101.197 118.802 L 99.785 120.013 Z " fill="rgb(114,113,114)"/><path d=" M 103.106 116.172 L 103.098 116.172 L 103.098 107.427 L 103.417 107.427 C 103.804 107.427 104.115 107.753 104.115 108.149 L 104.115 115.132 C 104.107 115.706 103.657 116.172 103.106 116.172 Z " fill="rgb(244,205,152)"/><line x1="103.603" y1="116.04" x2="103.874" y2="115.807"/><path d=" M 103.603 107.458 L 103.603 116.032 C 103.704 115.97 103.797 115.893 103.874 115.799 L 103.874 107.613 C 103.797 107.543 103.704 107.489 103.603 107.458 Z " fill="rgb(221,176,122)"/><path d=" M 103.463 107.435 L 103.37 116.133 C 103.455 116.11 103.533 116.079 103.603 116.032 L 103.603 107.458 L 103.463 107.435 Z " fill="rgb(255,245,235)"/><path d=" M 103.354 97.999 C 103.036 98.744 102.322 100.863 103.347 103.214 C 103.432 103.4 103.611 103.524 103.804 103.524 L 104.534 103.524 C 104.712 103.524 104.875 103.416 104.945 103.245 C 104.999 103.121 105.046 102.95 105.069 102.717 L 105.069 98.527 C 105.069 98.263 104.961 98.007 104.759 97.844 L 104.751 97.837 C 104.635 97.743 104.48 97.705 104.332 97.705 L 103.789 97.705 C 103.595 97.712 103.432 97.821 103.354 97.999 Z " fill="rgb(181,138,97)"/><path d=" M 104.937 98.046 C 104.891 97.976 104.836 97.906 104.774 97.852 L 104.767 97.844 C 104.681 97.774 104.573 97.736 104.472 97.72 C 104.092 97.759 103.471 97.883 103.168 98.488 C 103.122 98.628 103.137 98.597 103.083 98.775 C 103.385 98.395 103.975 97.937 104.937 98.046 L 104.937 98.046 Z  M 104.937 103.214 C 104.891 103.284 104.836 103.346 104.774 103.4 L 104.767 103.408 C 104.681 103.478 104.58 103.516 104.472 103.532 C 104.099 103.493 103.494 103.377 103.192 102.795 C 103.145 102.663 103.137 102.694 103.091 102.523 C 103.393 102.88 103.983 103.322 104.937 103.214 L 104.937 103.214 Z  M 103.075 99.551 L 103.075 101.67 C 103.075 101.972 103.277 102.252 103.587 102.352 C 103.812 102.422 104.099 102.438 104.41 102.306 C 104.518 102.259 104.611 102.19 104.681 102.104 L 104.891 101.871 C 105.007 101.739 105.069 101.584 105.069 101.414 L 105.069 99.815 C 105.069 99.699 105.038 99.582 104.984 99.482 L 104.906 99.35 C 104.836 99.218 104.72 99.117 104.588 99.047 C 104.433 98.969 104.216 98.876 103.975 98.837 C 103.502 98.76 103.075 99.109 103.075 99.551 L 103.075 99.551 Z " fill="rgb(198,154,117)"/><path d=" M 103.51 99.699 L 103.51 101.546 C 103.51 101.809 103.665 102.058 103.913 102.135 C 104.092 102.197 104.309 102.213 104.557 102.096 C 104.643 102.058 104.712 101.996 104.767 101.926 L 104.93 101.724 C 105.015 101.615 105.069 101.468 105.069 101.328 L 105.069 99.932 C 105.069 99.831 105.046 99.73 104.999 99.637 L 104.937 99.52 C 104.883 99.412 104.798 99.319 104.689 99.256 C 104.573 99.194 104.394 99.109 104.208 99.07 C 103.843 99 103.51 99.311 103.51 99.699 L 103.51 99.699 Z " fill="rgb(226,192,168)"/><path d=" M 104.805 97.992 C 104.759 97.93 104.705 97.883 104.643 97.837 L 104.635 97.829 C 104.549 97.774 104.456 97.743 104.355 97.736 C 104.006 97.782 103.432 97.922 103.168 98.45 C 103.129 98.566 103.145 98.543 103.098 98.698 C 103.37 98.356 103.898 97.945 104.805 97.992 L 104.805 97.992 Z  M 104.767 103.237 C 104.72 103.291 104.666 103.346 104.604 103.384 L 104.596 103.392 C 104.511 103.447 104.417 103.47 104.317 103.485 C 103.975 103.439 103.409 103.307 103.153 102.803 C 103.114 102.686 103.129 102.717 103.091 102.57 C 103.37 102.888 103.882 103.284 104.767 103.237 L 104.767 103.237 Z " fill="rgb(214,168,133)"/><rect x="104.379" y="99.559" width="0.691" height="0.109" transform="matrix(1,0,0,1,0,0)" fill="rgb(181,138,97)"/><rect x="104.379" y="100.063" width="0.691" height="0.101" transform="matrix(1,0,0,1,0,0)" fill="rgb(181,138,97)"/><rect x="104.379" y="100.529" width="0.691" height="0.116" transform="matrix(1,0,0,1,0,0)" fill="rgb(181,138,97)"/><rect x="104.379" y="100.995" width="0.691" height="0.116" transform="matrix(1,0,0,1,0,0)" fill="rgb(181,138,97)"/><rect x="104.379" y="101.429" width="0.691" height="0.116" transform="matrix(1,0,0,1,0,0)" fill="rgb(181,138,97)"/><rect x="104.379" y="99.109" width="0.691" height="0.116" transform="matrix(1,0,0,1,0,0)" fill="rgb(181,138,97)"/><rect x="104.379" y="101.895" width="0.691" height="0.124" transform="matrix(1,0,0,1,0,0)" fill="rgb(181,138,97)"/><rect x="104.379" y="98.659" width="0.691" height="0.085" transform="matrix(1,0,0,1,0,0)" fill="rgb(170,123,85)"/><rect x="104.379" y="102.399" width="0.691" height="0.116" transform="matrix(1,0,0,1,0,0)" fill="rgb(170,123,85)"/><path d=" M 85.935 31.556 C 85.935 29.83 87.284 28.429 88.945 28.429 C 90.607 28.429 91.956 29.83 91.956 31.556 C 91.956 33.282 90.607 34.683 88.945 34.683 C 87.284 34.683 85.935 33.282 85.935 31.556 Z " fill="rgb(153,153,152)"/><path d=" M 91.956 31.556 C 91.956 29.834 90.606 28.429 88.945 28.429 C 88.27 28.429 87.65 28.662 87.153 29.05 L 91.087 33.752 C 91.622 33.193 91.956 32.418 91.956 31.556 Z " fill="rgb(178,178,178)"/><line x1="91.902" y1="31.013" x2="90.854" y2="29.151"/><path d=" M 90.862 29.151 L 88.899 31.137 L 89.473 31.828 L 91.909 31.021 C 91.778 30.268 91.397 29.609 90.862 29.151 Z " fill="rgb(226,226,220)"/><path d=" M 87.89 31.556 C 87.89 30.905 88.398 30.377 89.023 30.377 C 89.648 30.377 90.156 30.905 90.156 31.556 C 90.156 32.207 89.648 32.736 89.023 32.736 C 88.398 32.736 87.89 32.207 87.89 31.556 Z " fill="rgb(73,73,72)"/><path d=" M 87.991 31.556 C 87.991 30.965 88.453 30.485 89.023 30.485 C 89.592 30.485 90.055 30.965 90.055 31.556 C 90.055 32.147 89.592 32.627 89.023 32.627 C 88.453 32.627 87.991 32.147 87.991 31.556 Z " fill="rgb(216,216,216)"/><path d=" M 90.055 31.556 C 90.055 30.967 89.589 30.485 89.023 30.485 C 88.813 30.485 88.627 30.548 88.464 30.656 L 89.814 32.247 C 89.97 32.061 90.055 31.82 90.055 31.556 Z " fill="rgb(234,234,234)"/><path d=" M 90.055 31.556 C 90.055 31.122 89.807 30.749 89.45 30.579 L 88.907 31.176 L 89.465 31.828 L 90.047 31.657 C 90.055 31.626 90.055 31.595 90.055 31.556 L 90.055 31.556 Z " fill="rgb(255,255,253)"/></g><g transform="matrix(0.856,0.516,-0.516,0.856,207.37,120.83)"><text transform="matrix(1,0,0,1,0,6.024)" style="font-family:'Oleo Script Swash Caps';font-weight:400;font-size:6px;font-style:normal;fill:#000000;stroke:none;">briefing for entry into a more harsh environment</text></g></g></svg>