<?xml version="1.0" standalone="no"?><!-- Generator: Gravit.io --><svg xmlns="http://www.w3.org/2000/svg" xmlns:xlink="http://www.w3.org/1999/xlink" style="isolation:isolate" viewBox="0 0 1920 496" width="1920" height="496"><defs><clipPath id="_clipPath_V6cerl9e9StJaIQGeZSiPRM2U3u44ePk"><rect width="1920" height="496"/></clipPath></defs><g clip-path="url(#_clipPath_V6cerl9e9StJaIQGeZSiPRM2U3u44ePk)"><rect width="1920" height="496" style="fill:rgb(255,129,99)"/><g><g opacity="0.35"><path d=" M 251.116 250.081 L 145.94 184.701 C 144.131 183.577 143.876 180.722 145.371 178.317 L 210.731 73.172 C 212.226 70.767 214.899 69.732 216.708 70.857 L 321.884 136.237 C 323.693 137.361 323.948 140.216 322.453 142.621 L 257.099 247.756 C 255.604 250.161 252.918 251.201 251.116 250.081 Z " fill="rgb(0,0,0)"/></g><path d=" M 253.648 250.194 L 148.472 184.814 C 146.663 183.689 146.408 180.834 147.903 178.429 L 213.263 73.285 C 214.758 70.88 217.431 69.845 219.24 70.97 L 324.416 136.349 C 326.225 137.474 326.48 140.329 324.985 142.734 L 259.631 247.869 C 258.136 250.274 255.45 251.314 253.648 250.194 Z " fill="rgb(0,0,0)"/><path d=" M 252.788 245.701 L 152.874 183.592 C 151.155 182.523 150.916 179.811 152.339 177.521 L 214.418 77.656 C 215.835 75.375 218.379 74.38 220.099 75.449 L 320.005 137.552 C 321.724 138.621 321.963 141.333 320.54 143.623 L 258.455 243.498 C 257.045 245.783 254.507 246.769 252.788 245.701 L 252.788 245.701 Z " fill="rgb(221,218,215)"/><path d=" M 220.099 75.449 C 218.379 74.38 215.841 75.366 214.418 77.656 L 152.333 177.531 C 150.916 179.811 151.149 182.533 152.868 183.602 L 202.821 214.654 L 270.052 106.5 L 220.099 75.449 Z " fill="rgb(233,232,231)"/><path d=" M 284.571 115.526 C 285.28 121.4 284.8 131.064 270.624 152.645 C 270.624 152.645 248.236 188.727 193.128 200.193 C 192.833 200.249 192.591 200.085 192.544 199.777 L 192.24 197.954 C 192.191 197.631 192.438 197.267 192.747 197.206 C 194.422 196.906 200.063 195.684 215.858 191.036 C 221.12 189.486 226.83 186.898 234.592 182.783 C 240.573 179.607 246.953 175.589 254.562 169.041 C 260.481 163.94 261.261 164.04 268.422 154.849 C 268.422 154.849 281.004 137.857 284.677 126.272 C 284.677 126.272 286.006 123.564 286.101 116.463 C 286.101 116.463 286.051 116.326 285.583 116.141 C 285.114 115.957 284.571 115.526 284.571 115.526 L 284.571 115.526 Z " fill="rgb(190,188,185)"/><path d=" M 269.549 105.936 L 270.885 106.766 C 270.885 106.766 272.202 105.486 274.022 104.651 C 277.62 102.982 280.976 104.883 281.435 108.715 C 282.145 114.589 281.858 129.249 267.677 150.839 C 267.677 150.839 245.289 186.922 190.181 198.387 C 189.886 198.443 189.644 198.28 189.596 197.971 L 189.293 196.149 C 189.244 195.826 189.491 195.461 189.799 195.401 C 191.474 195.1 197.116 193.878 212.911 189.231 C 218.173 187.68 223.883 185.092 231.644 180.977 C 237.626 177.801 244.006 173.784 251.615 167.236 C 257.533 162.135 258.314 162.235 265.474 153.043 C 265.474 153.043 278.056 136.051 281.729 124.466 C 281.729 124.466 283.812 117.232 283.711 111.232 C 283.65 107.329 281.841 104.145 278.78 102.973 C 277.648 102.535 276.269 102.342 274.642 102.632 C 274.633 102.613 271.613 103.419 269.549 105.936 L 269.549 105.936 Z " fill="rgb(55,41,48)"/></g><g transform="matrix(0.856,0.516,-0.516,0.856,183.936,135.557)"><text transform="matrix(1,0,0,1,0,3.76)" style="font-family:'Raleway';font-weight:400;font-size:4px;font-style:normal;fill:#000000;stroke:none;">briefing for entry into a more </text><text transform="matrix(1,0,0,1,0,8.456)" style="font-family:'Raleway';font-weight:400;font-size:4px;font-style:normal;fill:#000000;stroke:none;">harsh </text></g><g><path d=" M 274.274 184.245 L 274.29 182.434 L 261.368 182.319 L 261.353 184.011 C 261.351 184.235 261.565 184.414 261.825 184.417 L 273.933 184.525 C 274.12 184.52 274.273 184.396 274.274 184.245 Z " fill="rgb(25,25,55)"/><rect x="240.073" y="148.038" width="6.103" height="66.24" transform="matrix(0.009,-1,1,0.009,59.802,422.656)" fill="rgb(24,26,28)"/><rect x="242.519" y="150.507" width="1.165" height="66.24" transform="matrix(0.009,-1,1,0.009,57.312,425.08)" fill="rgb(2,2,2)"/><rect x="242.632" y="145.998" width="1.02" height="66.24" transform="matrix(0.009,-1,1,0.009,61.861,420.651)" fill="rgb(61,61,61)"/><path d=" M 281.203 183.049 L 281.232 179.889 C 281.234 179.672 281.026 179.492 280.767 179.49 L 276.685 179.454 L 276.65 183.449 L 280.674 183.485 C 280.969 183.495 281.201 183.299 281.203 183.049 Z " fill="rgb(61,61,61)"/><rect x="278.724" y="177.953" width="0.474" height="4.464" transform="matrix(0.009,-1,1,0.009,96.293,457.526)" fill="rgb(103,103,103)"/><path d=" M 281.203 183.121 L 276.653 183.074 L 276.649 183.568 L 280.551 183.603 C 280.91 183.613 281.2 183.398 281.203 183.121 Z " fill="rgb(24,26,28)"/><rect x="275.148" y="180.991" width="3.996" height="0.943" transform="matrix(0.009,-1,1,0.009,93.217,456.978)" fill="rgb(24,26,28)"/><rect x="273.62" y="181.03" width="6.103" height="0.857" transform="matrix(0.009,-1,1,0.009,92.75,456.498)" fill="rgb(61,61,61)"/><rect x="258.578" y="181.245" width="6.103" height="0.158" transform="matrix(0.009,-1,1,0.009,77.976,441.323)" fill="rgb(0,0,0)"/><rect x="193.928" y="179.352" width="0.184" height="2.743" transform="matrix(0.009,-1,1,0.009,11.571,373.122)" fill="rgb(9,92,135)"/><path d=" M 195.935 181.076 L 195.942 180.372 L 193.94 180.354 C 193.912 180.354 193.883 180.367 193.882 180.387 L 193.876 181.058 L 195.935 181.076 Z " fill="rgb(103,103,103)"/><rect x="194.575" y="179.739" width="0.132" height="1.519" transform="matrix(0.009,-1,1,0.009,12.412,373.52)" fill="rgb(139,141,141)"/><path d=" M 195.244 181.103 L 195.246 180.873 L 193.871 180.86 L 193.869 181.032 C 193.869 181.064 193.912 181.091 193.97 181.092 L 195.244 181.103 L 195.244 181.103 Z " fill="rgb(73,73,74)"/><path d=" M 199.547 178.949 C 199.547 178.949 205.178 178.065 208.618 178.201 C 208.618 178.201 209.301 178.246 209.406 178.616 C 209.406 178.616 201.124 178.884 199.547 178.949 Z " fill="rgb(99,100,99)"/><path d=" M 210.032 177.805 C 210.032 177.805 204.263 177.247 195.387 179.636 C 195.311 179.654 195.258 179.715 195.256 179.787 L 195.239 181.61 C 195.24 181.693 195.301 181.766 195.389 181.789 C 196.531 182.128 204.071 184.302 209.978 183.914 L 210.032 177.805 Z " fill="rgb(24,26,28)"/><path d=" M 208.611 178.201 C 206.696 178.157 201.871 178.246 195.291 179.813 C 195.27 179.82 195.255 179.833 195.255 179.852 L 195.24 181.564 C 195.24 181.584 195.254 181.597 195.268 181.597 C 195.8 181.74 203.19 183.722 209.104 183.472 C 209.305 183.46 209.465 183.317 209.466 183.146 L 209.504 178.985 C 209.515 178.558 209.114 178.212 208.611 178.201 L 208.611 178.201 Z " fill="rgb(103,103,103)"/><path d=" M 197.825 180.751 C 197.825 180.751 197.552 181.479 198.767 182.412 C 196.841 182.019 195.491 181.658 195.268 181.597 C 195.247 181.59 195.24 181.577 195.24 181.564 L 195.255 179.852 C 195.255 179.833 195.27 179.82 195.291 179.813 C 196.807 179.451 198.227 179.168 199.547 178.949 C 198.549 179.441 197.744 180.065 197.825 180.751 L 197.825 180.751 Z " fill="rgb(61,61,61)"/><path d=" M 274.396 183.482 L 274.431 179.611 C 274.433 179.374 274.226 179.181 273.967 179.179 L 250.649 178.971 C 250.39 178.969 250.179 179.158 250.177 179.395 L 250.143 183.265 C 250.141 183.502 250.348 183.695 250.607 183.698 L 273.924 183.906 C 274.184 183.901 274.394 183.712 274.396 183.482 Z " fill="rgb(2,2,2)"/><path d=" M 274.11 183.295 L 274.141 179.78 C 274.143 179.563 273.943 179.39 273.684 179.387 L 250.921 179.184 C 250.669 179.182 250.458 179.351 250.457 179.568 L 250.425 183.084 C 250.423 183.301 250.623 183.474 250.882 183.476 L 273.653 183.679 C 273.905 183.682 274.108 183.512 274.11 183.295 Z " fill="rgb(35,38,39)"/><path d=" M 274.15 185.251 L 274.166 183.434 L 261.302 183.319 L 261.286 185.017 C 261.284 185.241 261.492 185.421 261.758 185.423 L 273.816 185.531 C 274.003 185.533 274.148 185.409 274.15 185.251 Z " fill="rgb(35,38,39)"/><path d=" M 259.674 179.354 L 251.184 179.581 C 250.968 179.586 250.793 179.729 250.777 179.907 L 250.428 183.545 L 250.462 179.733 C 250.465 179.378 250.814 179.098 251.231 179.108 L 259.674 179.354 L 259.674 179.354 Z  M 261.758 185.423 L 261.773 183.777 L 261.297 183.773 L 261.286 185.116 C 261.284 185.281 261.441 185.42 261.643 185.422 L 261.758 185.423 Z " fill="rgb(103,103,103)"/></g><g transform="matrix(0.843,0.539,-0.539,0.843,206.399,115.989)"><text transform="matrix(1,0,0,1,0,3.76)" style="font-family:'Raleway';font-weight:400;font-size:4px;font-style:normal;fill:#000000;stroke:none;">Suscipit interdum  </text><text transform="matrix(1,0,0,1,0,8.456)" style="font-family:'Raleway';font-weight:400;font-size:4px;font-style:normal;fill:#000000;stroke:none;">condimentum. E</text></g><g transform="matrix(0.856,0.516,-0.516,0.856,221.007,89.914)"><text transform="matrix(1,0,0,1,0,3.76)" style="font-family:'Raleway';font-weight:400;font-size:4px;font-style:normal;fill:#000000;stroke:none;">briefing for entry in </text><text transform="matrix(1,0,0,1,0,8.456)" style="font-family:'Raleway';font-weight:400;font-size:4px;font-style:normal;fill:#000000;stroke:none;">environment</text></g><g><g opacity="0.35"><path d=" M 323.333 241.617 C 323.333 224.848 336.165 211.234 351.97 211.234 C 367.775 211.234 380.607 224.848 380.607 241.617 C 380.607 258.386 367.775 272 351.97 272 C 336.165 272 323.333 258.386 323.333 241.617 Z " fill="rgb(0,0,0)"/></g><path d=" M 324.726 241.05 C 324.726 224.281 337.558 210.667 353.363 210.667 C 369.168 210.667 382 224.281 382 241.05 C 382 257.819 369.168 271.433 353.363 271.433 C 337.558 271.433 324.726 257.819 324.726 241.05 Z " fill="rgb(226,224,223)"/><path d=" M 327.501 240.574 C 327.501 225.131 339.179 212.594 353.564 212.594 C 367.948 212.594 379.627 225.131 379.627 240.574 C 379.627 256.016 367.948 268.554 353.564 268.554 C 339.179 268.554 327.501 256.016 327.501 240.574 L 327.501 240.574 Z " fill="rgb(216,209,211)"/><path d=" M 334.81 241.05 C 334.81 229.646 343.408 220.388 353.998 220.388 C 364.588 220.388 373.186 229.646 373.186 241.05 C 373.186 252.454 364.588 261.712 353.998 261.712 C 343.408 261.712 334.81 252.454 334.81 241.05 L 334.81 241.05 Z " fill="rgb(187,186,186)"/><path d=" M 335.836 240.574 C 335.836 230.312 344.241 221.981 354.594 221.981 C 364.948 221.981 373.353 230.312 373.353 240.574 C 373.353 250.835 364.948 259.166 354.594 259.166 C 344.241 259.166 335.836 250.835 335.836 240.574 Z " fill="rgb(175,172,172)"/><path d=" M 378.73 237.893 C 378.73 237.893 379.164 240.222 370.568 240.574 L 370.568 239.378 C 370.568 239.378 372.523 238.397 373.671 238.182 C 373.665 238.176 376.635 237.246 378.73 237.893 L 378.73 237.893 Z " fill="rgb(190,181,178)"/><path d=" M 376.802 237.893 C 375.175 237.887 373.665 238.176 373.665 238.176 C 372.518 238.391 370.562 239.372 370.562 239.372 L 370.562 240.222 C 371.888 240.143 374.768 239.865 376.144 238.89 C 376.144 238.896 376.607 238.601 376.802 237.893 L 376.802 237.893 Z " fill="rgb(195,187,185)"/><path d=" M 373.175 238.499 C 373.175 238.499 372.635 239.355 373.682 239.604 C 373.682 239.604 371.827 239.786 373.175 238.499 Z  M 373.682 239.23 C 373.681 239.204 373.691 239.178 373.708 239.159 C 373.726 239.14 373.751 239.129 373.777 239.128 C 373.803 239.129 373.827 239.14 373.845 239.159 C 373.863 239.178 373.872 239.204 373.871 239.23 C 373.872 239.257 373.863 239.282 373.845 239.301 C 373.827 239.32 373.803 239.332 373.777 239.332 C 373.751 239.332 373.726 239.32 373.708 239.301 C 373.691 239.282 373.681 239.257 373.682 239.23 Z " fill="rgb(243,238,236)"/><path d=" M 371.626 232.876 C 371.626 232.876 377.158 231.402 378.289 233.046 C 378.289 233.046 381.504 237.195 377.515 238.953 C 373.526 240.715 377.515 238.953 377.515 238.953 L 372.089 234.134 L 371.626 232.876 L 371.626 232.876 Z " fill="rgb(170,169,169)"/><path d=" M 369.386 234.781 C 369.386 234.781 374.479 232.995 377.209 233.431 C 377.415 233.465 377.602 233.576 377.732 233.743 C 378.178 234.31 379.175 235.778 379.114 237.564 C 379.092 238.136 378.601 238.55 378.067 238.465 C 376.607 238.233 373.515 238.046 370.239 239.723 L 369.386 234.781 L 369.386 234.781 Z " fill="rgb(226,224,223)"/><path d=" M 369.548 235.699 C 369.548 235.699 372.952 233.783 375.771 234.191 C 376.239 234.259 376.696 234.378 376.963 234.786 C 377.22 235.183 377.576 235.682 377.782 236.283 C 378.039 237.031 377.509 237.825 376.757 237.87 C 375.247 237.966 373.13 237.734 370.161 239.23 L 369.548 235.699 L 369.548 235.699 Z " fill="rgb(219,216,214)"/><path d=" M 369.548 235.699 L 370.083 235.438 C 370.389 235.291 370.74 235.478 370.818 235.818 C 370.991 236.594 371.309 237.921 371.715 239.072 L 370.239 239.712 L 369.548 235.699 L 369.548 235.699 Z " fill="rgb(213,204,200)"/><path d=" M 374.389 237.819 L 375.905 237.944 C 376.289 237.978 376.562 237.694 376.406 237.422 L 376.401 237.411 C 376.289 237.212 375.988 237.116 375.738 237.19 L 374.339 237.615 C 374.2 237.654 374.239 237.808 374.389 237.819 L 374.389 237.819 Z " fill="rgb(252,253,255)"/><path d=" M 335.958 241.05 C 335.958 230.857 343.757 222.582 353.363 222.582 C 362.969 222.582 370.768 230.857 370.768 241.05 C 370.768 251.243 362.969 259.518 353.363 259.518 C 343.757 259.518 335.958 251.243 335.958 241.05 L 335.958 241.05 Z " fill="rgb(229,229,228)"/><path d=" M 337.981 241.05 C 337.981 231.808 344.873 224.305 353.363 224.305 C 361.853 224.305 368.746 231.808 368.746 241.05 C 368.746 250.292 361.853 257.795 353.363 257.795 C 344.873 257.795 337.981 250.292 337.981 241.05 L 337.981 241.05 Z " fill="rgb(191,177,174)"/><path d=" M 338.487 241.05 C 338.487 232.34 345.153 225.269 353.363 225.269 C 361.573 225.269 368.239 232.34 368.239 241.05 C 368.239 249.76 361.573 256.831 353.363 256.831 C 345.153 256.831 338.487 249.76 338.487 241.05 Z " fill="rgb(169,87,45)"/><path d=" M 339.936 241.374 C 339.936 233.512 345.953 227.129 353.363 227.129 C 360.774 227.129 366.79 233.512 366.79 241.374 C 366.79 249.236 360.774 255.619 353.363 255.619 C 345.953 255.619 339.936 249.236 339.936 241.374 Z " fill="rgb(35,33,38)"/><path d=" M 343.446 230.886 C 343.446 230.886 346.817 227.309 349.92 226.737 C 349.92 226.737 345.413 227.644 343.446 230.886 Z  M 365.208 233.097 C 365.397 233.448 365.681 234.038 366.083 235.007 C 366.122 235.109 365.993 235.189 365.932 235.098 L 364.227 232.609 C 364.222 232.604 364.227 232.598 364.233 232.598 L 364.4 232.598 C 364.734 232.604 365.041 232.791 365.208 233.097 L 365.208 233.097 Z  M 366.261 236.016 C 366.266 236.05 366.272 236.084 366.283 236.118 C 366.339 236.368 366.707 236.283 366.651 236.033 C 366.623 235.926 366.567 235.812 366.439 235.733 C 366.317 235.767 366.239 235.892 366.261 236.016 Z " fill="rgb(35,33,38)"/><path d=" M 340.811 241.05 C 340.811 241.05 341.624 234.236 346.499 230.501 C 347.067 230.064 347.697 229.724 348.354 229.469 C 350.126 228.795 354.11 227.638 358.416 228.812 C 358.416 228.812 355.341 227.627 351.424 228.069 C 347.641 228.5 344.276 230.847 342.527 234.429 C 341.708 236.118 341.028 238.301 340.811 241.05 L 340.811 241.05 Z  M 347.914 254.11 C 347.914 254.11 354.026 256.372 359.352 253.407 C 359.976 253.061 360.545 252.619 361.052 252.104 C 362.411 250.72 365.163 247.45 366.094 242.841 C 366.094 242.841 365.726 246.293 363.603 249.813 C 361.553 253.215 358.076 255.363 354.271 255.425 C 352.472 255.459 350.332 255.136 347.914 254.11 L 347.914 254.11 Z " fill="rgb(187,114,77)"/><path d=" M 360.038 224.299 C 360.038 224.299 364.428 226.34 366.785 229.917 C 366.785 229.923 365.57 226.125 360.038 224.299 Z  M 345.106 225.649 C 345.106 225.649 340.939 228.16 338.944 231.98 C 338.944 231.975 339.786 228.069 345.106 225.649 Z  M 346.817 257.347 C 346.817 257.347 342.426 255.306 340.07 251.729 C 340.07 251.729 341.284 255.522 346.817 257.347 Z  M 362.339 256.276 C 362.339 256.276 366.294 253.407 367.988 249.428 C 367.982 249.428 367.453 253.396 362.339 256.276 Z  M 330.493 257.795 C 330.493 257.795 336.766 266.383 342.031 267.669 C 342.025 267.675 333.93 265.742 330.493 257.795 Z  M 376.534 257.347 C 376.534 257.347 370.261 265.935 364.996 267.221 C 364.996 267.221 373.097 265.288 376.534 257.347 L 376.534 257.347 Z  M 330.493 223.852 C 330.493 223.852 336.766 215.264 342.031 213.977 C 342.025 213.971 333.93 215.904 330.493 223.852 Z  M 376.534 224.299 C 376.534 224.299 370.261 215.712 364.996 214.425 C 364.996 214.425 373.097 216.358 376.534 224.299 L 376.534 224.299 Z " fill="rgb(253,247,250)"/></g><g><g opacity="0.35"><path d=" M 331.771 90.843 L 313.333 90.681 L 313.455 80.538 L 332.71 80.7 C 333.867 80.711 334.794 81.707 334.769 82.926 L 334.708 87.794 C 334.684 89.502 333.356 90.366 331.771 90.843 Z " fill="rgb(0,0,0)"/></g><path d=" M 332.99 90.539 L 314.552 90.376 L 314.673 80.233 L 333.928 80.395 C 335.086 80.406 336.012 81.402 335.988 82.621 L 335.927 87.49 C 335.903 89.197 334.574 90.061 332.99 90.539 Z " fill="rgb(0,0,0)"/><g opacity="0.35"><path d=" M 286.51 90.071 L 284.718 90.051 C 284.56 90.051 284.426 89.939 284.426 89.817 L 284.584 80.802 C 284.584 80.68 284.706 80.589 284.865 80.589 L 286.681 80.609 L 286.51 90.071 Z " fill="rgb(0,0,0)"/></g><path d=" M 287.729 89.766 L 285.937 89.746 C 285.779 89.746 285.645 89.634 285.645 89.512 L 285.803 80.497 C 285.803 80.375 285.925 80.284 286.083 80.284 L 287.899 80.304 L 287.729 89.766 Z " fill="rgb(0,0,0)"/><g opacity="0.35"><path d=" M 312.017 91.575 L 287.192 91.331 C 287.022 91.331 286.888 91.209 286.888 91.067 L 287.046 79.471 C 287.046 79.328 287.18 79.206 287.351 79.206 L 312.175 79.45 C 312.346 79.45 312.48 79.572 312.48 79.715 L 312.321 91.311 C 312.321 91.463 312.175 91.575 312.017 91.575 Z " fill="rgb(0,0,0)"/></g><path d=" M 313.235 91.27 L 288.411 91.026 C 288.24 91.026 288.106 90.904 288.106 90.762 L 288.265 79.166 C 288.265 79.023 288.399 78.901 288.569 78.901 L 313.394 79.145 C 313.564 79.145 313.698 79.267 313.698 79.41 L 313.54 91.006 C 313.54 91.158 313.394 91.27 313.235 91.27 Z " fill="rgb(0,0,0)"/><g opacity="0.35"><path d=" M 284.816 88.292 L 277.589 88.201 C 277.443 88.201 277.333 88.109 277.333 88.008 L 277.431 82.855 C 277.431 82.621 277.699 82.428 278.028 82.428 L 284.913 82.509 L 284.816 88.292 L 284.816 88.292 Z " fill="rgb(0,0,0)"/></g><path d=" M 286.035 87.988 L 278.808 87.896 C 278.662 87.896 278.552 87.805 278.552 87.703 L 278.649 82.55 C 278.649 82.316 278.918 82.123 279.247 82.123 L 286.132 82.205 L 286.035 87.988 L 286.035 87.988 Z " fill="rgb(0,0,0)"/><path d=" M 332.125 90.579 L 308.08 90.406 L 308.19 79.958 L 333.295 80.141 C 334.806 80.152 336.012 81.178 336 82.438 L 335.951 87.459 C 335.915 89.187 334.209 90.589 332.125 90.579 L 332.125 90.579 Z " fill="rgb(226,226,226)"/><path d=" M 287.387 90.03 L 285.596 90.02 C 285.437 90.02 285.303 89.908 285.303 89.776 L 285.401 80.243 C 285.401 80.121 285.523 80.019 285.669 80.019 L 287.485 80.03 L 287.387 90.03 Z " fill="rgb(48,48,48)"/><rect x="288.621" y="78.667" width="2.084" height="10.011" transform="matrix(1,0,0,1,0,0)" fill="rgb(35,35,34)"/><path d=" M 313.491 91.311 L 287.692 91.118 C 287.518 91.115 287.378 90.998 287.375 90.854 L 287.497 79.196 C 287.497 79.054 287.643 78.932 287.814 78.932 L 313.613 79.125 C 313.784 79.125 313.93 79.247 313.93 79.389 L 313.808 91.047 C 313.808 91.189 313.662 91.311 313.491 91.311 Z " fill="rgb(48,48,48)"/><path d=" M 299.269 85.091 C 299.269 85.091 298.831 90.264 304.168 91.24 L 313.808 91.311 L 313.918 80.772 L 313.93 79.735 L 305.996 79.836 C 304.083 79.857 302.219 80.487 300.915 81.666 C 300.013 82.459 299.294 83.577 299.269 85.091 L 299.269 85.091 Z " fill="rgb(35,35,34)"/><path d=" M 313.308 91.148 L 287.814 91.148 C 287.643 91.148 287.497 91.138 287.497 91.138 L 287.497 90.589 C 287.497 90.579 287.631 90.579 287.814 90.579 L 313.308 90.579 C 313.479 90.579 313.625 90.589 313.625 90.589 L 313.625 91.138 C 313.625 91.138 313.479 91.148 313.308 91.148 L 313.308 91.148 Z " fill="rgb(35,35,34)"/><path d=" M 314.954 90.447 L 306.082 90.386 C 303.059 90.366 300.622 88.353 300.647 85.904 L 300.659 84.349 C 300.683 81.889 303.157 79.918 306.179 79.948 L 315.051 80.009 C 318.073 80.03 320.511 82.042 320.486 84.491 L 320.474 86.046 C 320.45 88.496 317.976 90.467 314.954 90.447 Z " fill="rgb(226,226,226)"/><path d=" M 302.682 85.284 C 302.682 83.18 304.73 81.473 307.252 81.473 C 309.774 81.473 311.822 83.18 311.822 85.284 C 311.822 87.387 309.774 89.095 307.252 89.095 C 304.728 89.094 302.683 87.388 302.682 85.284 Z " fill="rgb(255,255,255)"/><path d=" M 303.047 85.284 C 303.047 83.348 304.931 81.778 307.252 81.778 C 309.572 81.778 311.456 83.348 311.456 85.284 C 311.456 87.219 309.572 88.79 307.252 88.79 C 304.93 88.789 303.049 87.22 303.047 85.284 Z " fill="rgb(198,197,196)"/><path d=" M 303.181 85.294 C 303.182 83.425 304.999 81.911 307.24 81.91 C 309.48 81.911 311.297 83.425 311.298 85.294 C 311.297 87.163 309.48 88.678 307.24 88.679 C 304.999 88.678 303.182 87.163 303.181 85.294 L 303.181 85.294 Z " fill="rgb(35,35,34)"/><path d=" M 285.316 88.059 L 278.686 88.008 C 278.552 88.008 278.455 87.916 278.455 87.805 L 278.515 82.367 C 278.515 82.113 278.759 81.91 279.064 81.92 L 285.389 81.971 L 285.316 88.059 L 285.316 88.059 Z " fill="rgb(255,255,255)"/><path d=" M 284.926 88.048 L 278.979 88.008 C 278.759 88.008 278.589 87.855 278.589 87.683 L 278.649 82.479 C 278.649 82.296 278.832 82.154 279.039 82.154 L 284.987 82.194 C 285.206 82.194 285.377 82.347 285.377 82.52 L 285.316 87.723 C 285.316 87.906 285.145 88.059 284.926 88.048 Z " fill="rgb(225,223,224)"/><rect x="286.55" y="80.618" width="0.597" height="6.088" transform="matrix(1,0,0,1,0,0)" fill="rgb(175,172,174)"/><rect x="283.534" y="81.582" width="1.852" height="0.955" transform="matrix(1,0,0,1,0,0)" fill="rgb(255,255,255)"/><rect x="283.531" y="84.773" width="1.852" height="0.955" transform="matrix(1,0,0,1,0,0)" fill="rgb(255,255,255)"/><rect x="283.607" y="81.622" width="1.694" height="0.874" transform="matrix(1,0,0,1,0,0)" fill="rgb(26,26,26)"/><rect x="283.616" y="84.813" width="1.694" height="0.874" transform="matrix(1,0,0,1,0,0)" fill="rgb(26,26,26)"/><path d=" M 335.366 80.954 L 333.368 80.67 C 333.1 80.629 332.832 80.609 332.563 80.609 L 328.457 80.609 L 310.932 80.477 C 310.701 80.477 310.481 80.477 310.25 80.497 L 306.399 80.477 C 306.094 80.477 305.789 80.497 305.497 80.538 L 302.609 80.975 L 303.011 80.812 C 303.059 80.792 303.12 80.782 303.169 80.772 L 305.314 80.324 C 305.728 80.233 306.167 80.192 306.594 80.202 L 310.237 80.253 L 311.005 80.223 L 328.14 80.355 C 328.347 80.365 328.554 80.365 328.761 80.375 L 332.746 80.395 C 332.966 80.395 333.173 80.416 333.392 80.456 L 334.891 80.741 C 334.976 80.751 335.062 80.772 335.123 80.812 L 335.366 80.954 L 335.366 80.954 Z " fill="rgb(255,255,255)"/><rect x="283.778" y="81.714" width="1.353" height="0.701" transform="matrix(1,0,0,1,0,0)" fill="rgb(48,48,48)"/><rect x="283.787" y="84.905" width="1.353" height="0.701" transform="matrix(1,0,0,1,0,0)" fill="rgb(48,48,48)"/><path d=" M 285.303 88.079 L 278.686 88.008 L 278.515 87.947 L 278.442 87.805 L 285.303 87.855 L 285.303 88.079 L 285.303 88.079 Z " fill="rgb(175,172,174)"/><path d=" M 285.303 89.766 L 285.535 80.345 C 285.535 80.202 285.669 80.091 285.84 80.08 L 286.876 80.03 L 285.693 80.009 C 285.535 80.009 285.413 80.111 285.413 80.243 L 285.303 89.766 L 285.303 89.766 Z " fill="rgb(99,99,99)"/><path d=" M 287.375 89.766 L 287.363 90.041 L 285.437 90 L 285.303 89.715 L 287.375 89.766 L 287.375 89.766 Z " fill="rgb(35,35,34)"/><path d=" M 287.375 90.854 L 287.4 79.338 C 287.4 79.074 287.668 78.861 287.997 78.881 L 289.008 78.942 L 287.899 79.115 C 287.741 79.145 287.619 79.298 287.619 79.44 L 287.375 90.854 L 287.375 90.854 Z " fill="rgb(99,99,99)"/><path d=" M 300.647 85.569 C 300.647 85.569 300.793 86.168 301.28 86.92 C 302.365 88.597 304.498 89.624 306.789 89.644 L 331.698 89.868 C 332.734 89.878 333.746 89.593 334.513 89.024 C 335.074 88.607 335.622 88.008 335.951 87.124 C 335.951 87.124 336.037 89.583 333.38 90.386 C 333.075 90.478 332.734 90.518 332.405 90.518 L 306.386 90.356 C 305.509 90.345 304.632 90.193 303.839 89.868 C 302.401 89.278 300.573 88.038 300.647 85.569 L 300.647 85.569 Z " fill="rgb(188,187,187)"/></g></g></svg>