<?xml version="1.0" encoding="iso-8859-1"?>
<!-- Generator: Adobe Illustrator 19.0.0, SVG Export Plug-In . SVG Version: 6.00 Build 0)  -->
<svg version="1.1" id="Capa_1" xmlns="http://www.w3.org/2000/svg" xmlns:xlink="http://www.w3.org/1999/xlink" x="0px" y="0px"
	 viewBox="0 0 512 512" style="enable-background:new 0 0 512 512;" xml:space="preserve">
<path style="fill:#E6E6E6;" d="M141.241,317.793H0V26.483h370.759v176.552"/>
<g>
	<path style="fill:#959595;" d="M123.586,185.379v132.414h17.655V203.034v-17.655H123.586z"/>
	<path style="fill:#959595;" d="M167.724,185.379h26.483v17.655h-26.483V185.379z"/>
	<path style="fill:#959595;" d="M220.69,185.379h150.069v17.655H220.69V185.379z"/>
</g>
<path style="fill:#39B54A;" d="M141.241,158.897h26.483v26.483h-26.483V158.897z"/>
<path style="fill:#2E923C;" d="M141.241,185.379h26.483v17.655h-26.483V185.379z"/>
<path style="fill:#0071BC;" d="M194.207,114.759h26.483v70.621h-26.483V114.759z"/>
<path style="fill:#005C99;" d="M194.207,185.379h26.483v17.655h-26.483V185.379z"/>
<path style="fill:#E6E6E6;" d="M141.241,203.034H512v282.483H141.241V203.034z"/>
<path style="fill:#B3B3B3;" d="M141.241,203.034H512V256H141.241V203.034z"/>
<path style="fill:#FCEE21;" d="M203.034,220.69h17.655v17.655h-17.655V220.69z"/>
<path style="fill:#06AAE9;" d="M238.345,220.69H256v17.655h-17.655V220.69z"/>
<path style="fill:#ED1C24;" d="M167.724,220.69h17.655v17.655h-17.655V220.69z"/>
<path style="fill:#B3B3B3;" d="M0,26.483h370.759v52.966H0V26.483z"/>
<path style="fill:#FCEE21;" d="M61.793,44.138h17.655v17.655H61.793V44.138z"/>
<path style="fill:#06AAE9;" d="M97.103,44.138h17.655v17.655H97.103V44.138z"/>
<path style="fill:#ED1C24;" d="M26.483,44.138h17.655v17.655H26.483V44.138z"/>
<path style="fill:#F8CF26;" d="M276.815,354.569c-4.97-6.471-12.659-10.275-20.815-10.293v-35.31
	c19.068,0,37.058,8.819,48.728,23.887L276.815,354.569z"/>
<path style="fill:#ED1C24;" d="M276.815,354.569c3.655,4.608,5.65,10.311,5.667,16.19h35.31c0-13.736-4.599-27.083-13.065-37.906
	L276.815,354.569z"/>
<path style="fill:#39B54A;" d="M234.496,355.399c4.943-6.965,12.959-11.114,21.504-11.123v-35.31
	c-19.95,0-38.674,9.649-50.238,25.909L234.496,355.399z"/>
<path style="fill:#0071BC;" d="M234.496,355.399c-8.536,11.873-5.826,28.425,6.047,36.961c11.873,8.536,28.425,5.826,36.961-6.047
	c3.257-4.529,4.996-9.975,4.979-15.554h35.31c0.053,34.127-27.569,61.837-61.696,61.89s-61.837-27.569-61.89-61.696
	c-0.018-12.941,4.025-25.556,11.555-36.078L234.496,355.399z"/>
<g>
	<path style="fill:#29485A;" d="M361.931,308.966H476.69v17.655H361.931V308.966z"/>
	<path style="fill:#29485A;" d="M361.931,344.276H476.69v17.655H361.931V344.276z"/>
	<path style="fill:#29485A;" d="M361.931,379.586H476.69v17.655H361.931V379.586z"/>
	<path style="fill:#29485A;" d="M361.931,414.897h61.793v17.655h-61.793V414.897z"/>
	<path style="fill:#29485A;" d="M26.483,105.931h35.31v17.655h-35.31V105.931z"/>
	<path style="fill:#29485A;" d="M26.483,132.414h17.655v17.655H26.483V132.414z"/>
</g>
<path style="fill:#ED1C24;" d="M35.31,238.345h26.483v44.138H35.31V238.345z"/>
<path style="fill:#F8CF26;" d="M88.276,203.034h26.483v79.448H88.276V203.034z"/>
<path style="fill:#ED1C24;" d="M114.759,97.103v17.655h12.694L22.881,201.905l11.299,13.559l107.061-89.22v14.998h17.655V97.103
	L114.759,97.103z"/>
<g>
	<path style="fill:#29485A;" d="M256,105.931h88.276v17.655H256V105.931z"/>
	<path style="fill:#29485A;" d="M256,141.241h70.621v17.655H256V141.241z"/>
</g>
<g>
</g>
<g>
</g>
<g>
</g>
<g>
</g>
<g>
</g>
<g>
</g>
<g>
</g>
<g>
</g>
<g>
</g>
<g>
</g>
<g>
</g>
<g>
</g>
<g>
</g>
<g>
</g>
<g>
</g>
</svg>
