<?xml version="1.0" encoding="iso-8859-1"?>
<!-- Generator: Adobe Illustrator 21.0.0, SVG Export Plug-In . SVG Version: 6.00 Build 0)  -->
<svg xmlns="http://www.w3.org/2000/svg" xmlns:xlink="http://www.w3.org/1999/xlink" version="1.1" id="Capa_1" x="0px" y="0px" viewBox="0 0 512 512" style="enable-background:new 0 0 512 512;" xml:space="preserve" width="512" height="512">
<g>
	<path style="fill:#E3F6FC;" d="M256,512c-33.084,0-60-26.916-60-60v-30h120v30C316,485.084,289.084,512,256,512z"/>
	<path style="fill:#C7E3EA;" d="M256,512c33.084,0,60-26.916,60-60v-30h-60V512z"/>
	<path style="fill:#0050C3;" d="M356,452H156V322h200V452z"/>
	<rect x="256" y="322" style="fill:#001035;" width="100" height="130"/>
	<path style="fill:#FFE470;" d="M256,370c-102.01,0-185-82.991-185-185S153.99,0,256,0s185,82.991,185,185S358.01,370,256,370z"/>
	<path style="fill:#FFCD00;" d="M256,0v370c102.01,0,185-82.991,185-185S358.01,0,256,0z"/>
	<polygon style="fill:#FF7733;" points="291,178.276 256,158.276 221,178.276 178.558,154.023 193.442,127.977 221,143.724    256,123.724 291,143.724 318.558,127.977 333.442,154.023  "/>
	<path style="fill:#FFCD00;" d="M241,369.389c4.949,0.399,9.95,0.611,15,0.611s10.051-0.212,15-0.611V290h-30V369.389z"/>
	<path style="fill:#FF9E38;" d="M262.071,369.89c0.761-0.025,1.521-0.053,2.279-0.087c0.787-0.036,1.573-0.075,2.358-0.121   c0.516-0.03,1.03-0.064,1.545-0.098c0.916-0.061,1.833-0.121,2.746-0.195c0,0,0.001,0,0.001,0L271,290h-15v80   c1.422,0,2.839-0.022,4.254-0.054C260.861,369.932,261.466,369.91,262.071,369.89z"/>
	<path style="fill:#FFCD00;" d="M256,305c-66.168,0-120-53.832-120-120h30c0,49.626,40.374,90,90,90s90-40.374,90-90h30   C376,251.168,322.168,305,256,305z"/>
	<path style="fill:#FF9E38;" d="M376,185h-30c0,49.626-40.374,90-90,90v30C322.168,305,376,251.168,376,185z"/>
	<polygon style="fill:#FF4823;" points="291,178.276 333.442,154.023 318.558,127.977 291,143.724 256,123.724 256,158.276  "/>
</g>















</svg>
