<svg xmlns="http://www.w3.org/2000/svg" viewBox="0 0 230.09 189.6"><defs><style>.cls-1{isolation:isolate;}.cls-2{fill:#0065ff;}.cls-3,.cls-6{fill:none;stroke-width:2px;}.cls-3{stroke:#cce0ff;}.cls-4{fill:#cfd4db;mix-blend-mode:multiply;}.cls-5{fill:url(#linear-gradient);}.cls-6{stroke:#fff;stroke-miterlimit:10;}</style><linearGradient id="linear-gradient" x1="75.7" y1="127" x2="201" y2="1.7" gradientUnits="userSpaceOnUse"><stop offset="0" stop-color="#48cc8c"/><stop offset=".3" stop-color="#4dd091"/><stop offset=".6" stop-color="#5cdb9e"/><stop offset="1" stop-color="#75edb4"/><stop offset="1" stop-color="#78f0b7"/></linearGradient></defs><title>Objects-Messages</title><g class="cls-1"><g id="Layer_2" data-name="Layer 2"><g id="Objects"><path id="_Path_" data-name="&lt;Path&gt;" class="cls-2" d="M37.5 81.3h56a37.5 37.5 0 0 1 37.5 37.5v17a37.5 37.5 0 0 1-37.5 37.4H63a14.8 14.8 0 0 0-13 7.8l-4.8 8.6-5.3-9.8a14.8 14.8 0 0 0-10-7.4 37.5 37.5 0 0 1-30-36.7v-17a37.5 37.5 0 0 1 37.5-37.4z"/><path class="cls-3" d="M34.7 117.6h61.6M34.7 134.8h61.6M34.7 143.5h61.6M34.7 126.2h61.6"/><path class="cls-4" d="M93.5 81.3h-56A37.4 37.4 0 0 0 7 97 52.5 52.5 0 0 0 58.5 140h43a20.7 20.7 0 0 1 18 11l4 7.2a37.3 37.3 0 0 0 7.5-22.3v-17a37.5 37.5 0 0 0-37.5-37.4z"/><path class="cls-5" d="M177.6 0H99a52.5 52.5 0 0 0-52.4 52.5v23.7A52.5 52.5 0 0 0 99 128.7h43a20.7 20.7 0 0 1 18.2 10.8l6.6 12 7.4-13.5a20.7 20.7 0 0 1 14-10.4 52.5 52.5 0 0 0 42-51.4V52.5A52.5 52.5 0 0 0 177.5 0z"/><circle class="cls-6" cx="94.8" cy="65" r="10.1"/><circle class="cls-6" cx="136.7" cy="65" r="10.1"/><circle class="cls-6" cx="178.6" cy="65" r="10.1"/></g></g></g></svg>