<?xml version="1.0" standalone="no"?><!-- Generator: Gravit.io --><svg xmlns="http://www.w3.org/2000/svg" xmlns:xlink="http://www.w3.org/1999/xlink" style="isolation:isolate" viewBox="0 0 670 512" width="670" height="512"><defs><clipPath id="_clipPath_1pwCiv67xSeM1NsxuNUKfYzeC3niXjKt"><rect width="670" height="512"/></clipPath></defs><g clip-path="url(#_clipPath_1pwCiv67xSeM1NsxuNUKfYzeC3niXjKt)"><g><path d=" M 404.072 314.712 L 32.995 314.712 C 16.429 314.712 3 301.283 3 284.716 L 3 51.485 C 3 34.919 16.429 21.49 32.995 21.49 L 404.072 21.49 C 420.638 21.49 434.067 34.919 434.067 51.485 L 434.067 284.717 C 434.067 301.283 420.637 314.712 404.072 314.712 Z " fill="rgb(49,156,214)"/><path d=" M 218.533 21.49 L 32.995 21.49 C 16.429 21.49 3 34.919 3 51.485 L 3 284.717 C 3 301.283 16.429 314.712 32.995 314.712 L 218.533 314.712 L 218.533 21.49 L 218.533 21.49 Z " fill="rgb(85,216,239)"/><rect x="181.061" y="304.501" width="74.942" height="66.649" transform="matrix(1,0,0,1,0,0)" fill="rgb(177,180,191)"/><g><rect x="181.061" y="304.501" width="37.471" height="66.649" transform="matrix(1,0,0,1,0,0)" fill="rgb(210,214,227)"/><path d=" M 3 243.6 L 3 284.716 C 3 301.282 16.429 314.711 32.995 314.711 L 404.072 314.711 C 420.638 314.711 434.067 301.282 434.067 284.716 L 434.067 243.6 L 3 243.6 L 3 243.6 Z " fill="rgb(210,214,227)"/></g><path d=" M 218.533 243.6 L 3 243.6 L 3 284.716 C 3 301.282 16.429 314.711 32.995 314.711 L 218.533 314.711 L 218.533 243.6 L 218.533 243.6 Z " fill="rgb(242,244,249)"/><path d=" M 287.649 366.924 L 149.418 366.924 C 142.443 366.924 136.789 372.578 136.789 379.553 C 136.789 386.528 142.443 392.182 149.418 392.182 L 287.651 392.182 C 294.626 392.182 300.28 386.528 300.28 379.553 C 300.278 372.578 294.624 366.924 287.649 366.924 Z " fill="rgb(210,214,227)"/><path d=" M 218.533 366.924 L 149.416 366.924 C 142.441 366.924 136.787 372.578 136.787 379.553 C 136.787 386.528 142.441 392.182 149.416 392.182 L 218.533 392.182 L 218.533 366.924 L 218.533 366.924 Z " fill="rgb(242,244,249)"/><path d=" M 650.001 192.667 L 530.27 192.667 C 522 192.667 515.272 199.395 515.272 207.665 L 515.272 475.512 C 515.272 483.782 522 490.51 530.27 490.51 L 650.002 490.51 C 658.272 490.51 665 483.782 665 475.512 L 665 207.665 C 664.999 199.395 658.271 192.667 650.001 192.667 Z " fill="rgb(49,156,214)"/><path d=" M 588 192.667 L 524.827 192.667 C 516.1 192.667 509 199.395 509 207.665 L 509 475.512 C 509 483.782 516.1 490.51 524.827 490.51 L 588 490.51 L 588 192.667 Z " fill="rgb(85,216,239)"/><g><path d=" M 663.999 237.888 L 663.999 206.665 C 663.999 198.395 657.271 191.667 649.001 191.667 L 529.27 191.667 C 521 191.667 514.272 198.395 514.272 206.665 L 514.272 237.888 L 663.999 237.888 L 663.999 237.888 Z " fill="rgb(210,214,227)"/><path d=" M 514.272 445.713 L 514.272 474.512 C 514.272 482.782 521 489.51 529.27 489.51 L 649.002 489.51 C 657.272 489.51 664 482.782 664 474.512 L 664 445.713 L 514.272 445.713 L 514.272 445.713 Z " fill="rgb(210,214,227)"/></g><g><path d=" M 589.135 193.667 L 529.27 193.667 C 521 193.667 514.272 200.395 514.272 208.665 L 514.272 239.888 L 589.135 239.888 L 589.135 193.667 Z " fill="rgb(242,244,249)"/></g><path d=" M 571.729 368.302 L 571.729 317.875 C 571.729 315.535 574.211 314.03 576.286 315.109 L 624.738 340.323 C 626.976 341.488 626.976 344.689 624.738 345.854 L 576.286 371.068 C 574.21 372.148 571.729 370.642 571.729 368.302 Z " fill="rgb(255,174,66)"/><path d=" M 571.729 368.302 L 571.729 317.875 C 571.729 315.535 574.211 314.03 576.286 315.109 L 588.135 321.275 L 588.135 364.902 L 576.286 371.068 C 574.21 372.148 571.729 370.642 571.729 368.302 Z " fill="rgb(255,223,99)"/><path d=" M 185.239 197.69 L 287.404 154.605 C 289.946 153.533 289.946 149.932 287.404 148.86 L 185.239 105.775 C 183.183 104.908 180.91 106.417 180.91 108.648 L 180.91 194.818 C 180.91 197.048 183.183 198.556 185.239 197.69 Z " fill="rgb(255,174,66)"/><path d=" M 218.533 119.816 L 185.237 105.775 C 183.181 104.908 180.908 106.417 180.908 108.648 L 180.908 194.818 C 180.908 197.049 183.182 198.557 185.237 197.691 L 218.533 183.65 L 218.533 119.816 Z " fill="rgb(255,223,99)"/></g><g><path d=" M 662.999 240.388 L 662.999 209.165 C 662.999 200.895 656.271 194.167 648.001 194.167 L 528.27 194.167 C 520 194.167 513.272 200.895 513.272 209.165 L 513.272 240.388 L 662.999 240.388 L 662.999 240.388 Z " fill="rgb(210,214,227)"/></g><g><path d=" M 662.999 240.388 L 662.999 209.165 C 662.999 200.895 656.271 194.167 648.001 194.167 L 528.27 194.167 C 520 194.167 513.272 200.895 513.272 209.165 L 513.272 240.388 L 662.999 240.388 L 662.999 240.388 Z " fill="rgb(210,214,227)"/><path d=" M 513.272 448.213 L 513.272 477.012 C 513.272 485.282 520 492.01 528.27 492.01 L 648.002 492.01 C 656.272 492.01 663 485.282 663 477.012 L 663 448.213 L 513.272 448.213 L 513.272 448.213 Z " fill="rgb(210,214,227)"/></g><g><path d=" M 661.999 240.388 L 661.999 209.165 C 661.999 200.895 655.271 194.167 647.001 194.167 L 527.27 194.167 C 519 194.167 512.272 200.895 512.272 209.165 L 512.272 240.388 L 661.999 240.388 L 661.999 240.388 Z " fill="rgb(210,214,227)"/><path d=" M 512.272 448.213 L 512.272 477.012 C 512.272 485.282 519 492.01 527.27 492.01 L 647.002 492.01 C 655.272 492.01 662 485.282 662 477.012 L 662 448.213 L 512.272 448.213 L 512.272 448.213 Z " fill="rgb(210,214,227)"/></g><g><path d=" M 659.999 238.388 L 659.999 207.165 C 659.999 198.895 653.271 192.167 645.001 192.167 L 525.27 192.167 C 517 192.167 510.272 198.895 510.272 207.165 L 510.272 238.388 L 659.999 238.388 L 659.999 238.388 Z " fill="rgb(210,214,227)"/><path d=" M 510.272 446.213 L 510.272 475.012 C 510.272 483.282 517 490.01 525.27 490.01 L 645.002 490.01 C 653.272 490.01 660 483.282 660 475.012 L 660 446.213 L 510.272 446.213 L 510.272 446.213 Z " fill="rgb(210,214,227)"/></g><g><path d=" M 664.999 239.388 L 664.999 208.165 C 664.999 199.895 658.271 193.167 650.001 193.167 L 530.27 193.167 C 522 193.167 515.272 199.895 515.272 208.165 L 515.272 239.388 L 614 239.388 L 664.999 239.388 L 664.999 239.388 Z " fill="rgb(210,214,227)"/><path d=" M 511.272 445.213 L 511.272 474.012 C 511.272 482.282 518 489.01 526.27 489.01 L 646.002 489.01 C 654.272 489.01 661 482.282 661 474.012 L 661 445.213 L 511.272 445.213 L 511.272 445.213 Z " fill="rgb(210,214,227)"/></g><g><path d=" M 515.272 445.5 L 515.272 475.425 C 515.272 484.018 522 491.01 530.27 491.01 L 650.002 491.01 C 658.272 491.01 665 484.018 665 475.425 L 665 445.5 L 515.272 445.5 L 515.272 445.5 Z " fill="rgb(210,214,227)"/></g><g><path d=" M 495.763 487.619 L 496.594 330.979 C 496.617 326.582 490.917 324.748 488.894 321.462 C 485.939 316.662 485.716 311.299 480.372 311.271 L 451.885 311.12 L 188.813 309.725 C 184.312 309.701 181.868 314.153 178.893 317.691 C 175.918 321.228 172.412 323.85 172.383 329.259 L 171.552 485.9 C 171.495 496.72 178.772 505.561 187.774 505.608 L 479.333 507.155 C 488.335 507.201 495.706 498.438 495.763 487.619 Z " fill="rgb(49,156,214)"/><g><path d=" M 589.47 191.606 L 525.171 191.44 C 516.289 191.417 509.044 198.441 509.022 207.099 L 508.937 239.786 L 589.345 239.994 L 589.47 191.606 Z " fill="rgb(242,244,249)"/><path d=" M 589.124 445.811 L 507.989 446.193 L 508.132 476.447 C 508.172 485.135 515.497 492.168 524.46 492.126 L 589.34 491.821 L 589.124 445.811 Z " fill="rgb(242,244,249)"/></g><path d=" M 341 310.5 L 206.175 310.5 C 187.756 310.5 172.772 314.589 172.772 319.614 L 172.772 482.386 C 172.772 487.411 187.756 491.5 206.175 491.5 L 340.5 491 L 341 310.5 Z " fill="rgb(85,216,239)"/><path d=" M 322.729 435.302 L 322.729 384.875 C 322.729 382.535 325.211 381.03 327.286 382.109 L 375.738 407.323 C 377.976 408.488 377.976 411.689 375.738 412.854 L 327.286 438.068 C 325.21 439.148 322.729 437.642 322.729 435.302 Z " fill="rgb(255,174,66)"/><path d=" M 323.187 435.288 L 323.272 384.861 C 323.276 382.521 325.76 381.02 327.834 382.103 L 339.672 388.289 L 339.599 431.916 L 327.739 438.062 C 325.662 439.138 323.183 437.628 323.187 435.288 Z " fill="rgb(255,223,99)"/></g><g><path d=" M 497 311 C 497.029 304.314 481.922 307.082 463.916 307.005 L 440.842 306.916 L 203.097 306.001 C 185.091 305.923 172.075 302.741 172.046 309.427 L 171.937 334.67 L 497 337 L 497 311 Z " fill="rgb(210,214,227)"/><path d=" M 171 513 C 170.986 516.128 484.076 516.136 490 518.216 C 495.924 520.296 194.066 516.172 203.099 516.211 L 461.912 518.216 C 470.945 518.255 483.065 517.009 488.997 515.213 C 494.928 513.417 495.986 517.128 496 514 L 496 484 L 171 483 L 171 513 Z " fill="rgb(210,214,227)"/></g></g></svg>