<svg height="512pt" viewBox="-34 0 511 512" width="512pt" xmlns="http://www.w3.org/2000/svg"><path d="m333.21875 40.378906v233.441406l-123.128906 155.050782h-169.21875c-22.261719 0-40.371094-18.109375-40.371094-40.382813v-348.109375c0-22.269531 18.109375-40.378906 40.371094-40.378906h251.988281c22.25 0 40.359375 18.109375 40.359375 40.378906zm0 0" fill="#ffda2f"/><path d="m333.21875 40.378906v233.441406l-123.128906 155.050782h-43.859375v-428.871094h126.628906c22.25 0 40.359375 18.109375 40.359375 40.378906zm0 0" fill="#ffbc1d"/><path d="m.5 115h332.71875v114h-332.71875zm0 0" fill="#0052c2"/><path d="m166.230469 115h166.988281v114h-166.988281zm0 0" fill="#003481"/><path d="m333.21875 40.378906v74.621094h-332.71875v-74.621094c0-22.269531 18.109375-40.378906 40.371094-40.378906h251.988281c22.25 0 40.359375 18.109375 40.359375 40.378906zm0 0" fill="#0089ff"/><path d="m333.21875 40.378906v74.621094h-166.988281v-115h126.628906c22.25 0 40.359375 18.109375 40.359375 40.378906zm0 0" fill="#0052c2"/><path d="m444.488281 385.410156c0 69.710938-56.609375 126.441406-126.257812 126.589844h-.269531c-69.769532 0-126.53125-56.789062-126.53125-126.589844 0-69.800781 56.761718-126.589844 126.53125-126.589844h.269531c69.648437.148438 126.257812 56.878907 126.257812 126.589844zm0 0" fill="#daf0fa"/><path d="m444.488281 385.410156c0 69.710938-56.609375 126.441406-126.257812 126.589844v-253.179688c69.648437.148438 126.257812 56.878907 126.257812 126.589844zm0 0" fill="#b0e1ff"/><path d="m85.859375 43h-24.8125c-8.285156 0-15 6.714844-15 15s6.714844 15 15 15h24.8125c8.285156 0 15-6.714844 15-15s-6.714844-15-15-15zm0 0" fill="#fff"/><path d="m287.679688 58c0 8.28125-6.71875 15-15 15h-145.441407c-8.277343 0-15-6.71875-15-15s6.722657-15 15-15h145.441407c8.28125 0 15 6.71875 15 15zm0 0" fill="#0db2ff"/><path d="m85.859375 157h-24.8125c-8.285156 0-15 6.714844-15 15s6.714844 15 15 15h24.8125c8.285156 0 15-6.714844 15-15s-6.714844-15-15-15zm0 0" fill="#fff"/><path d="m287.679688 172c0 8.28125-6.71875 15-15 15h-145.441407c-8.277343 0-15-6.71875-15-15s6.722657-15 15-15h145.441407c8.28125 0 15 6.71875 15 15zm0 0" fill="#0db2ff"/><path d="m85.859375 265.085938h-24.8125c-8.285156 0-15 6.71875-15 15 0 8.285156 6.714844 15 15 15h24.8125c8.285156 0 15-6.714844 15-15 0-8.28125-6.714844-15-15-15zm0 0" fill="#fff"/><path d="m85.859375 313.152344h-24.8125c-8.285156 0-15 6.714844-15 15 0 8.28125 6.714844 15 15 15h24.8125c8.285156 0 15-6.71875 15-15 0-8.285156-6.714844-15-15-15zm0 0" fill="#fff"/><path d="m85.859375 359.539062h-24.8125c-8.285156 0-15 6.714844-15 15 0 8.285157 6.714844 15 15 15h24.8125c8.285156 0 15-6.714843 15-15 0-8.285156-6.714844-15-15-15zm0 0" fill="#fff"/><path d="m333.230469 327.378906v62.03125c0 8.289063-6.71875 15-15 15s-15-6.710937-15-15v-62.03125c0-8.277344 6.71875-15 15-15s15 6.722656 15 15zm0 0" fill="#0db2ff"/><path d="m333.230469 428.429688v15.011718c0 8.277344-6.71875 15-15 15s-15-6.722656-15-15v-15.011718c0-8.28125 6.71875-15 15-15s15 6.71875 15 15zm0 0" fill="#0db2ff"/><g fill="#0089ff"><path d="m272.679688 73h-106.449219v-30h106.449219c8.28125 0 15 6.71875 15 15s-6.71875 15-15 15zm0 0"/><path d="m287.679688 172c0 8.28125-6.71875 15-15 15h-106.449219v-30h106.449219c8.28125 0 15 6.71875 15 15zm0 0"/><path d="m333.230469 327.378906v62.03125c0 8.289063-6.71875 15-15 15v-92.03125c8.28125 0 15 6.722656 15 15zm0 0"/><path d="m333.230469 428.429688v15.011718c0 8.277344-6.71875 15-15 15v-45.011718c8.28125 0 15 6.71875 15 15zm0 0"/></g></svg>