<?xml version="1.0" encoding="iso-8859-1"?>
<!-- Generator: Adobe Illustrator 21.0.0, SVG Export Plug-In . SVG Version: 6.00 Build 0)  -->
<svg xmlns="http://www.w3.org/2000/svg" xmlns:xlink="http://www.w3.org/1999/xlink" version="1.1" id="Capa_1" x="0px" y="0px" viewBox="0 0 512 512" style="enable-background:new 0 0 512 512;" xml:space="preserve" width="512" height="512">
<g>
	<path style="fill:#0050C3;" d="M491,387H21V65h470V387z"/>
	<rect x="256" y="65" style="fill:#00215A;" width="235" height="322"/>
	<path style="fill:#00EED0;" d="M512,447H0v-90h512V447z"/>
	<rect x="261" y="156" style="fill:#FF7733;" width="30" height="156"/>
	<rect x="201" y="186" style="fill:#FF9E38;" width="30" height="126"/>
	<rect x="141" y="236" style="fill:#FFCD00;" width="30" height="76"/>
	<rect x="321" y="216" style="fill:#FF4823;" width="30" height="96"/>
	<rect x="381" y="196" style="fill:#DD311A;" width="30" height="116"/>
	<rect x="256" y="357" style="fill:#09B09B;" width="256" height="90"/>
	<polygon style="fill:#A8EBFA;" points="431,327 81,327 81,125 111,125 111,297 431,297  "/>
	<rect x="256" y="297" style="fill:#24DAF5;" width="175" height="30"/>
</g>















</svg>
