<?xml version="1.0" standalone="no"?><!-- Generator: Gravit.io --><svg xmlns="http://www.w3.org/2000/svg" xmlns:xlink="http://www.w3.org/1999/xlink" style="isolation:isolate" viewBox="0 0 300 350" width="300" height="350"><defs><clipPath id="_clipPath_9rGr81P5jYgLCFdwcW5Nb35MWd1UNhPH"><rect width="300" height="350"/></clipPath></defs><g clip-path="url(#_clipPath_9rGr81P5jYgLCFdwcW5Nb35MWd1UNhPH)"><g><g><path d=" M 150.298 160.089 L 184.803 292.621 L 59.287 325.339 L 17 162.875 L 140.911 130.573 L 150.285 160.089 L 150.298 160.089 L 150.298 160.089 Z " fill="rgb(223,225,229)"/><path d=" M 176.371 294.811 L 183.031 285.831 L 176.814 261.927 L 146.671 302.557 L 176.371 294.811 L 176.371 294.811 Z " fill="rgb(229,232,236)"/><path d=" M 100.341 225.635 L 136.978 216.087 C 140.841 230.921 135.394 246.623 123.178 255.871 C 110.962 265.119 94.382 266.091 81.171 258.334 C 67.959 250.578 60.717 235.62 62.822 220.436 C 64.927 205.252 75.964 192.832 90.787 188.968 L 90.787 188.968 L 100.341 225.635 Z " fill="rgb(252,177,35)"/><path d=" M 107.499 214.41 L 97.959 177.744 C 118.182 172.574 138.792 184.673 144.151 204.862 L 144.234 205.181 L 107.499 214.41 Z " fill="rgb(255,139,0)"/><mask id="_mask_fNCYxBMVBAvDzApO0Y3AO2PzBdzUVJDl" x="-200%" y="-200%" width="400%" height="400%"><rect x="-200%" y="-200%" width="400%" height="400%" style="fill:white;"/><line x1="64.479" y1="292.316" x2="112.249" y2="279.859" fill="black" stroke="none"/></mask><line x1="64.479" y1="292.316" x2="112.249" y2="279.859" mask="url(#_mask_fNCYxBMVBAvDzApO0Y3AO2PzBdzUVJDl)" vector-effect="non-scaling-stroke" stroke-width="4" stroke="rgb(0,101,255)" stroke-linejoin="miter" stroke-linecap="butt" stroke-miterlimit="10"/><mask id="_mask_HElA7tGFhhEDF1jI8OoUFFnngxPSRZHD" x="-200%" y="-200%" width="400%" height="400%"><rect x="-200%" y="-200%" width="400%" height="400%" style="fill:white;"/><line x1="67.567" y1="304.206" x2="103.443" y2="294.838" fill="black" stroke="none"/></mask><line x1="67.567" y1="304.206" x2="103.443" y2="294.838" mask="url(#_mask_HElA7tGFhhEDF1jI8OoUFFnngxPSRZHD)" vector-effect="non-scaling-stroke" stroke-width="4" stroke="rgb(0,101,255)" stroke-linejoin="miter" stroke-linecap="butt" stroke-miterlimit="10"/><path d=" M 150.298 160.089 L 150.285 160.089 L 140.911 130.573 L 106.35 139.58 L 94.262 184.714 L 161.403 202.742 L 150.298 160.089 L 150.298 160.089 Z " fill="rgb(229,232,236)"/><path d=" M 288 78.511 L 253.661 211.098 L 128.117 178.533 L 170.196 16 L 265.818 40.805 L 287.972 78.511 L 288 78.511 L 288 78.511 Z " fill="rgb(255,113,67)"/><path d=" M 287.972 78.511 L 258.064 70.751 L 265.818 40.805 L 287.972 78.511 L 287.972 78.511 Z " fill="rgb(255,213,196)"/><mask id="_mask_sAwrO2evYF7mPqLXLuYZ9PUr2QVGvTOt" x="-200%" y="-200%" width="400%" height="400%"><rect x="-200%" y="-200%" width="400%" height="400%" style="fill:white;"/><line x1="148.706" y1="152.204" x2="196.49" y2="164.607" fill="black" stroke="none"/></mask><line x1="148.706" y1="152.204" x2="196.49" y2="164.607" mask="url(#_mask_sAwrO2evYF7mPqLXLuYZ9PUr2QVGvTOt)" vector-effect="non-scaling-stroke" stroke-width="4" stroke="rgb(255,255,255)" stroke-linejoin="round" stroke-linecap="butt" stroke-miterlimit="4"/><mask id="_mask_olMeOtaIkGXV2gWDM0ZSeEDNfQR9be32" x="-200%" y="-200%" width="400%" height="400%"><rect x="-200%" y="-200%" width="400%" height="400%" style="fill:white;"/><line x1="145.632" y1="164.094" x2="181.522" y2="173.406" fill="black" stroke="none"/></mask><line x1="145.632" y1="164.094" x2="181.522" y2="173.406" mask="url(#_mask_olMeOtaIkGXV2gWDM0ZSeEDNfQR9be32)" vector-effect="non-scaling-stroke" stroke-width="4" stroke="rgb(255,255,255)" stroke-linejoin="round" stroke-linecap="butt" stroke-miterlimit="4"/><path d=" M 288 78.511 L 253.661 211.098 L 128.117 178.533 L 170.196 16 L 265.818 40.805 L 287.972 78.511 L 288 78.511 L 288 78.511 Z " fill="rgb(0,101,255)"/><path d=" M 287.972 78.511 L 258.064 70.751 L 265.818 40.805 L 287.972 78.511 L 287.972 78.511 Z " fill="rgb(51,132,255)"/><mask id="_mask_a5iFvibj7DsgRwxDtBr79xLwFXkGbBwg" x="-200%" y="-200%" width="400%" height="400%"><rect x="-200%" y="-200%" width="400%" height="400%" style="fill:white;"/><line x1="148.706" y1="152.204" x2="196.49" y2="164.607" fill="black" stroke="none"/></mask><line x1="148.706" y1="152.204" x2="196.49" y2="164.607" mask="url(#_mask_a5iFvibj7DsgRwxDtBr79xLwFXkGbBwg)" vector-effect="non-scaling-stroke" stroke-width="4" stroke="rgb(255,255,255)" stroke-linejoin="round" stroke-linecap="butt" stroke-miterlimit="4"/><mask id="_mask_dCRouqKXvg5k2t9c1hoMvqPLDxxeJ8Ca" x="-200%" y="-200%" width="400%" height="400%"><rect x="-200%" y="-200%" width="400%" height="400%" style="fill:white;"/><line x1="145.632" y1="164.094" x2="181.522" y2="173.406" fill="black" stroke="none"/></mask><line x1="145.632" y1="164.094" x2="181.522" y2="173.406" mask="url(#_mask_dCRouqKXvg5k2t9c1hoMvqPLDxxeJ8Ca)" vector-effect="non-scaling-stroke" stroke-width="4" stroke="rgb(255,255,255)" stroke-linejoin="round" stroke-linecap="butt" stroke-miterlimit="4"/><mask id="_mask_6MjpUEwrW5umNMdto6g8wxBeT6znmiP9" x="-200%" y="-200%" width="400%" height="400%"><rect x="-200%" y="-200%" width="400%" height="400%" style="fill:white;"/><line x1="179.237" y1="34.319" x2="227.021" y2="46.722" fill="black" stroke="none"/></mask><line x1="179.237" y1="34.319" x2="227.021" y2="46.722" mask="url(#_mask_6MjpUEwrW5umNMdto6g8wxBeT6znmiP9)" vector-effect="non-scaling-stroke" stroke-width="4" stroke="rgb(255,255,255)" stroke-linejoin="round" stroke-linecap="butt" stroke-miterlimit="4"/><mask id="_mask_CtO9P08jyTG0KOQj30LhaupeFre1f4Cf" x="-200%" y="-200%" width="400%" height="400%"><rect x="-200%" y="-200%" width="400%" height="400%" style="fill:white;"/><line x1="176.149" y1="46.209" x2="226.633" y2="59.304" fill="black" stroke="none"/></mask><line x1="176.149" y1="46.209" x2="226.633" y2="59.304" mask="url(#_mask_CtO9P08jyTG0KOQj30LhaupeFre1f4Cf)" vector-effect="non-scaling-stroke" stroke-width="4" stroke="rgb(255,255,255)" stroke-linejoin="round" stroke-linecap="butt" stroke-miterlimit="4"/><mask id="_mask_vn251NqTtRG7GZ902UdMTSH6HthXEDoJ" x="-200%" y="-200%" width="400%" height="400%"><rect x="-200%" y="-200%" width="400%" height="400%" style="fill:white;"/><path d=" M 170.943 78.372 L 155.366 138.486 L 248.081 162.542" fill="black" stroke="none"/></mask><path d=" M 170.943 78.372 L 155.366 138.486 L 248.081 162.542" fill="none" mask="url(#_mask_vn251NqTtRG7GZ902UdMTSH6HthXEDoJ)" vector-effect="non-scaling-stroke" stroke-width="4" stroke="rgb(255,255,255)" stroke-linejoin="miter" stroke-linecap="butt" stroke-miterlimit="10"/><mask id="_mask_fOfkUkhV9YnN4SEW3g3BFRwgFokyU7bF" x="-200%" y="-200%" width="400%" height="400%"><rect x="-200%" y="-200%" width="400%" height="400%" style="fill:white;"/><path d=" M 261.72 103.967 C 208.841 90.248 208.744 152.329 155.269 138.458" fill="black" stroke="none"/></mask><path d=" M 261.72 103.967 C 208.841 90.248 208.744 152.329 155.269 138.458" fill="none" mask="url(#_mask_fOfkUkhV9YnN4SEW3g3BFRwgFokyU7bF)" vector-effect="non-scaling-stroke" stroke-width="4" stroke="rgb(255,171,0)" stroke-linejoin="miter" stroke-linecap="square" stroke-miterlimit="10"/><path d=" M 46.766 55.366 L 33.838 66.463 L 28.294 59.994 C 25.233 56.421 25.644 51.041 29.214 47.977 L 29.214 47.977 C 32.784 44.912 38.16 45.324 41.222 48.897 L 46.766 55.366 Z " fill="rgb(0,101,255)"/><linearGradient id="_lgradient_5" x1="0.4999999999999938" y1="1.0000000000000049" x2="0.49999999999999384" y2="0" gradientTransform="matrix(17.038,-0.007,-0.038,95.783,62.928,49.353)" gradientUnits="userSpaceOnUse"><stop offset="0%" stop-opacity="1" style="stop-color:rgb(255,171,0)"/><stop offset="100%" stop-opacity="1" style="stop-color:rgb(255,227,128)"/></linearGradient><rect x="62.943" y="49.375" width="17.037" height="95.778" transform="matrix(-0.759,0.651,-0.651,-0.759,188.979,124.571)" fill="url(#_lgradient_5)"/><path d=" M 117.04 150.444 L 109.078 128.079 L 96.159 139.165 L 117.04 150.444 L 117.04 150.444 Z " fill="rgb(254,239,211)"/><path d=" M 117.04 150.444 L 114.201 142.463 L 109.576 146.426 L 117.04 150.444 L 117.04 150.444 Z " fill="rgb(0,101,255)"/><rect x="70.428" y="46.601" width="8.518" height="95.778" transform="matrix(-0.759,0.651,-0.651,-0.759,192.847,117.59)" fill="rgb(252,177,35)"/><path d=" M 220.042 233.672 C 216.134 231.055 210.847 232.104 208.231 236.014 L 203.496 243.095 L 203.496 243.095 L 217.647 252.573 L 222.424 245.437 C 224.992 241.526 223.929 236.274 220.042 233.672 L 220.042 233.672 Z " fill="rgb(0,101,255)"/><linearGradient id="_lgradient_6" x1="0" y1="0.5" x2="1" y2="0.5" gradientTransform="matrix(95.801,-0.044,-0.002,8.519,132.482,281.014)" gradientUnits="userSpaceOnUse"><stop offset="0%" stop-opacity="1" style="stop-color:rgb(255,171,0)"/></linearGradient><rect x="132.539" y="281.033" width="95.786" height="8.518" transform="matrix(0.556,-0.831,0.831,0.556,-156.904,276.589)" fill="url(#_lgradient_6)"/><path d=" M 203.51 243.095 L 210.585 247.834 L 210.585 247.834 L 217.661 252.573 L 203.51 243.095 L 203.51 243.095 L 203.51 243.095 Z " fill="rgb(0,101,255)"/><linearGradient id="_lgradient_7" x1="0" y1="0.5" x2="0.5593013097742018" y2="-0.328964441266851" gradientTransform="matrix(14.151,0,0,9.478,203.51,243.095)" gradientUnits="userSpaceOnUse"><stop offset="100%" stop-opacity="1" style="stop-color:rgb(255,227,128)"/><stop offset="100%" stop-opacity="1" style="stop-color:rgb(255,62,0)"/></linearGradient><path d=" M 203.51 243.095 L 210.585 247.834 L 210.585 247.834 L 217.661 252.573 L 203.51 243.095 L 203.51 243.095 L 203.51 243.095 Z " fill="url(#_lgradient_7)"/><path d=" M 210.585 247.834 L 157.346 327.473 L 157.346 327.473 L 164.436 332.212 L 217.661 252.573 L 210.585 247.834 L 210.585 247.834 L 210.585 247.834 Z " fill="rgb(252,177,35)"/><path d=" M 145.106 346 L 145.106 346 L 146.781 338.572 L 145.106 346 L 145.106 346 Z " fill="rgb(254,239,211)"/><path d=" M 150.285 322.733 L 146.906 337.63 L 151.974 341.011 L 151.157 341.593 L 164.436 332.212 L 150.285 322.733 L 150.285 322.733 Z " fill="rgb(254,239,211)"/><path d=" M 146.975 337.713 L 146.975 337.713 L 146.781 338.572 L 145.106 346 L 145.106 346 L 151.212 341.676 L 152.029 341.108 L 146.975 337.713 L 146.975 337.713 Z " fill="rgb(0,101,255)"/></g></g></g></svg>