<svg xmlns="http://www.w3.org/2000/svg" xmlns:xlink="http://www.w3.org/1999/xlink" viewBox="0 0 275 275"><defs><style>.cls-1{isolation:isolate;}.cls-2{fill:#dfe1e5;}.cls-3{fill:#e5e8ec;mix-blend-mode:multiply;}.cls-4{fill:#fcb123;}.cls-5{fill:#ff8b00;}.cls-12,.cls-13,.cls-6,.cls-9{fill:none;stroke-width:2px;}.cls-6{stroke:#0065ff;}.cls-12,.cls-13,.cls-6{stroke-miterlimit:10;}.cls-7{fill:#ff7143;}.cls-8{fill:#ffd5c4;}.cls-12,.cls-9{stroke:#fff;}.cls-9{stroke-linejoin:round;}.cls-10{fill:#0065ff;}.cls-11{fill:#3384ff;}.cls-13{stroke:#ffab00;stroke-linecap:square;}.cls-14{fill:url(#New_Gradient_Swatch_6);}.cls-15{fill:#feefd3;}.cls-16{fill:url(#New_Gradient_Swatch_6-2);}.cls-17{fill:url(#New_Gradient_Swatch_6-3);}</style><linearGradient id="New_Gradient_Swatch_6" x1="806.43" y1="4863.83" x2="806.43" y2="4794.69" gradientTransform="translate(-727.46 -4752.19)" gradientUnits="userSpaceOnUse"><stop offset="0" stop-color="#ffab00"/><stop offset="1" stop-color="#ffe380"/></linearGradient><linearGradient id="New_Gradient_Swatch_6-2" x1="3519.9" y1="3416.01" x2="3519.9" y2="3346.86" gradientTransform="translate(-3223.77 3732.65) rotate(-90)" xlink:href="#New_Gradient_Swatch_6"/><linearGradient id="New_Gradient_Swatch_6-3" x1="3516.82" y1="3416.01" x2="3516.82" y2="3415.6" gradientTransform="matrix(-0.83, -0.56, 0.56, -0.83, 1203.35, 4980.39)" xlink:href="#New_Gradient_Swatch_6"/></defs><title>Artboard 88</title><g class="cls-1"><g id="Objects"><polygon id="_Path_" data-name="&lt;Path&gt;" class="cls-2" points="135.91 122.41 160.83 218.05 70.18 241.66 39.64 124.42 129.13 101.11 135.9 122.41 135.91 122.41"/><polygon class="cls-3" points="154.74 219.63 159.55 213.15 155.06 195.9 133.29 225.22 154.74 219.63"/><path class="cls-4" d="M99.83,169.71l26.46-6.89a27.35,27.35,0,1,1-33.36-19.57h0Z"/><path class="cls-5" d="M105,161.61l-6.89-26.46a27.48,27.48,0,0,1,33.36,19.57l.06.23Z"/><line class="cls-6" x1="73.93" y1="217.83" x2="108.43" y2="208.84"/><line class="cls-6" x1="76.16" y1="226.41" x2="102.07" y2="219.65"/><polygon class="cls-3" points="135.91 122.41 135.9 122.41 129.13 101.11 104.17 107.61 95.44 140.18 143.93 153.19 135.91 122.41"/><polygon class="cls-7" points="235.36 63.54 210.56 159.22 119.89 135.72 150.28 18.43 219.34 36.33 235.34 63.54 235.36 63.54"/><polygon class="cls-8" points="235.34 63.54 213.74 57.94 219.34 36.33 235.34 63.54"/><line class="cls-9" x1="134.76" y1="116.72" x2="169.27" y2="125.67"/><line class="cls-9" x1="132.54" y1="125.3" x2="158.46" y2="132.02"/><polygon class="cls-10" points="235.36 63.54 210.56 159.22 119.89 135.72 150.28 18.43 219.34 36.33 235.34 63.54 235.36 63.54"/><polygon class="cls-11" points="235.34 63.54 213.74 57.94 219.34 36.33 235.34 63.54"/><line class="cls-9" x1="134.76" y1="116.72" x2="169.27" y2="125.67"/><line class="cls-9" x1="132.54" y1="125.3" x2="158.46" y2="132.02"/><line class="cls-9" x1="156.81" y1="31.65" x2="191.32" y2="40.6"/><line class="cls-9" x1="154.58" y1="40.23" x2="191.04" y2="49.68"/><polyline class="cls-12" points="150.82 63.44 139.57 106.82 206.53 124.18"/><path class="cls-13" d="M216.38,81.91c-38.19-9.9-38.26,34.9-76.88,24.89"/><path class="cls-10" d="M46.31,40h12.3a0,0,0,0,1,0,0v6.15a6.15,6.15,0,0,1-6.15,6.15h0a6.15,6.15,0,0,1-6.15-6.15V40A0,0,0,0,1,46.31,40Z" transform="translate(122.33 47.05) rotate(139.38)"/><rect class="cls-14" x="72.82" y="42.5" width="12.3" height="69.14" transform="translate(189.09 84.16) rotate(139.38)"/><polygon id="_Path_2" data-name="&lt;Path&gt;" class="cls-15" points="111.89 115.45 106.14 99.31 96.81 107.31 111.89 115.45"/><polygon class="cls-10" points="111.89 115.45 109.84 109.69 106.5 112.55 111.89 115.45"/><rect class="cls-4" x="78.23" y="40.5" width="6.15" height="69.14" transform="translate(191.89 79.12) rotate(139.38)"/><path class="cls-10" d="M186.28,175.51a6.15,6.15,0,0,0-8.53,1.69l-3.42,5.11h0l10.22,6.84L188,184A6.15,6.15,0,0,0,186.28,175.51Z"/><rect class="cls-16" x="123.1" y="209.68" width="69.14" height="6.15" transform="translate(-106.83 225.52) rotate(-56.22)"/><polygon class="cls-10" points="174.34 182.31 179.45 185.73 179.45 185.73 184.56 189.15 174.34 182.31 174.34 182.31"/><polygon class="cls-17" points="174.34 182.31 179.45 185.73 179.45 185.73 184.56 189.15 174.34 182.31 174.34 182.31"/><polygon class="cls-4" points="179.45 185.73 141 243.2 141 243.2 146.12 246.62 184.56 189.15 179.45 185.73 179.45 185.73"/><polygon class="cls-15" points="132.16 256.57 132.16 256.57 133.37 251.21 132.16 256.57"/><polygon class="cls-15" points="135.9 239.78 133.46 250.53 137.12 252.97 136.53 253.39 146.12 246.62 135.9 239.78"/><polygon class="cls-10" points="133.51 250.59 133.51 250.59 133.37 251.21 132.16 256.57 132.16 256.57 136.57 253.45 137.16 253.04 133.51 250.59"/></g></g></svg>